M48
; DRILL file {KiCad 9.0.4} date 2025-09-18T15:31:49+0200
; FORMAT={-:-/ absolute / metric / decimal}
; #@! TF.CreationDate,2025-09-18T15:31:49+02:00
; #@! TF.GenerationSoftware,Kicad,Pcbnew,9.0.4
; #@! TF.FileFunction,Plated,1,4,PTH
FMAT,2
METRIC
; #@! TA.AperFunction,Plated,PTH,ViaDrill
T1C0.300
; #@! TA.AperFunction,Plated,PTH,ComponentDrill
T2C0.800
; #@! TA.AperFunction,Plated,PTH,ComponentDrill
T3C1.000
; #@! TA.AperFunction,Plated,PTH,ComponentDrill
T4C1.067
%
G90
G05
T1
X78.575Y-69.7
X85.25Y-64.05
X85.325Y-66.1
X89.225Y-121.475
X93.425Y-115.0
X96.775Y-65.7
X97.425Y-106.2
X103.575Y-76.625
T2
X79.14Y-117.0
X79.46Y-58.0
X81.552Y-43.14
X81.577Y-40.6
X81.577Y-51.395
X81.577Y-53.935
X81.68Y-117.0
X82.0Y-58.0
X84.187Y-117.006
X84.54Y-58.0
X86.76Y-117.0
X87.08Y-58.0
X89.3Y-117.0
X89.62Y-58.0
X91.84Y-117.0
X92.16Y-58.0
X94.38Y-117.0
X94.7Y-58.0
X96.92Y-117.0
X97.273Y-57.994
X99.46Y-117.0
X99.78Y-58.0
X100.373Y-51.522
X100.373Y-54.062
X100.475Y-43.14
X100.5Y-40.6
X102.0Y-117.0
X102.32Y-58.0
T3
X75.36Y-40.95
X75.36Y-43.49
X75.36Y-46.03
X75.36Y-48.57
X75.5Y-83.38
X75.5Y-85.92
X75.5Y-88.46
X75.5Y-91.0
X75.5Y-93.54
X75.5Y-96.08
X75.5Y-98.62
X75.5Y-101.16
X75.7Y-54.3
X75.7Y-56.84
X75.7Y-59.38
X75.7Y-61.92
X75.8Y-67.3
X75.8Y-69.84
X75.8Y-72.38
X75.8Y-74.92
X76.095Y-134.675
X76.095Y-137.215
X77.315Y-121.9
X77.315Y-124.44
X77.315Y-126.98
X77.315Y-129.52
X77.9Y-40.95
X77.9Y-43.49
X77.9Y-46.03
X77.9Y-48.57
X78.635Y-134.675
X78.635Y-137.215
X81.175Y-134.675
X81.175Y-137.215
X82.29Y-121.725
X82.29Y-124.265
X82.29Y-126.805
X82.29Y-129.345
X83.715Y-134.675
X83.715Y-137.215
X103.6Y-124.18
X103.6Y-126.72
X103.6Y-129.26
X103.6Y-131.8
X105.0Y-83.32
X105.0Y-85.86
X105.0Y-88.4
X105.0Y-90.94
X105.0Y-93.48
X105.0Y-96.02
X105.0Y-98.56
X105.0Y-101.1
T4
X86.7Y-42.8
X86.7Y-45.8
X88.49Y-133.625
X88.49Y-136.625
X88.515Y-123.45
X88.515Y-126.45
X89.7Y-42.8
X89.7Y-45.8
X91.49Y-133.625
X91.49Y-136.625
X91.515Y-123.45
X91.515Y-126.45
X92.7Y-42.8
X92.7Y-45.8
X94.49Y-133.625
X94.49Y-136.625
X94.515Y-123.45
X94.515Y-126.45
X95.7Y-42.8
X95.7Y-45.8
X97.49Y-133.625
X97.49Y-136.625
X97.515Y-123.45
X97.515Y-126.45
M30
