G04 #@! TF.GenerationSoftware,KiCad,Pcbnew,9.0.4*
G04 #@! TF.CreationDate,2025-09-18T15:34:25+02:00*
G04 #@! TF.ProjectId,SMaRT,534d6152-542e-46b6-9963-61645f706362,0*
G04 #@! TF.SameCoordinates,Original*
G04 #@! TF.FileFunction,Soldermask,Bot*
G04 #@! TF.FilePolarity,Negative*
%FSLAX46Y46*%
G04 Gerber Fmt 4.6, Leading zero omitted, Abs format (unit mm)*
G04 Created by KiCad (PCBNEW 9.0.4) date 2025-09-18 15:34:25*
%MOMM*%
%LPD*%
G01*
G04 APERTURE LIST*
G04 APERTURE END LIST*
G36*
X105716686Y-137938428D02*
G01*
X105716687Y-137938428D01*
X105716689Y-137938429D01*
X105898678Y-138013811D01*
X106062463Y-138123249D01*
X106201751Y-138262537D01*
X106311189Y-138426322D01*
X106386571Y-138608311D01*
X106425000Y-138801509D01*
X106425000Y-138998491D01*
X106386571Y-139191689D01*
X106311189Y-139373678D01*
X106201751Y-139537463D01*
X106062463Y-139676751D01*
X105898678Y-139786189D01*
X105716689Y-139861571D01*
X105600770Y-139884628D01*
X105523493Y-139900000D01*
X105523491Y-139900000D01*
X105326509Y-139900000D01*
X105326507Y-139900000D01*
X105229910Y-139880785D01*
X105133311Y-139861571D01*
X104951322Y-139786189D01*
X104787537Y-139676751D01*
X104648249Y-139537463D01*
X104538811Y-139373678D01*
X104463429Y-139191689D01*
X104425000Y-138998491D01*
X104425000Y-138801509D01*
X104449769Y-138676983D01*
X104463428Y-138608313D01*
X104538812Y-138426320D01*
X104648247Y-138262539D01*
X104787539Y-138123247D01*
X104951320Y-138013812D01*
X105133313Y-137938428D01*
X105326507Y-137900000D01*
X105523493Y-137900000D01*
X105716686Y-137938428D01*
G37*
G36*
X70765285Y-137818060D02*
G01*
X70946397Y-137893079D01*
X71109393Y-138001990D01*
X71248010Y-138140607D01*
X71356921Y-138303603D01*
X71431940Y-138484715D01*
X71470185Y-138676983D01*
X71470185Y-138873017D01*
X71431940Y-139065285D01*
X71356921Y-139246397D01*
X71248010Y-139409393D01*
X71109393Y-139548010D01*
X70946397Y-139656921D01*
X70765285Y-139731940D01*
X70573017Y-139770185D01*
X70376983Y-139770185D01*
X70184715Y-139731940D01*
X70003603Y-139656921D01*
X69840607Y-139548010D01*
X69701990Y-139409393D01*
X69593079Y-139246397D01*
X69518060Y-139065285D01*
X69479815Y-138873017D01*
X69479815Y-138676983D01*
X69518060Y-138484715D01*
X69593079Y-138303603D01*
X69701990Y-138140607D01*
X69840607Y-138001990D01*
X70003603Y-137893079D01*
X70184715Y-137818060D01*
X70376983Y-137779815D01*
X70573017Y-137779815D01*
X70765285Y-137818060D01*
G37*
G36*
X76342936Y-136397665D02*
G01*
X76407010Y-136424205D01*
X76497625Y-136461739D01*
X76497627Y-136461740D01*
X76497626Y-136461740D01*
X76636844Y-136554762D01*
X76755238Y-136673156D01*
X76848260Y-136812374D01*
X76912335Y-136967064D01*
X76945000Y-137131282D01*
X76945000Y-137298718D01*
X76912335Y-137462936D01*
X76848260Y-137617626D01*
X76755238Y-137756844D01*
X76636844Y-137875238D01*
X76497626Y-137968260D01*
X76342936Y-138032335D01*
X76178718Y-138065000D01*
X76011282Y-138065000D01*
X75847064Y-138032335D01*
X75692374Y-137968260D01*
X75553156Y-137875238D01*
X75434762Y-137756844D01*
X75341740Y-137617626D01*
X75341739Y-137617625D01*
X75277665Y-137462935D01*
X75245000Y-137298718D01*
X75245000Y-137131281D01*
X75277665Y-136967064D01*
X75341739Y-136812374D01*
X75434760Y-136673159D01*
X75434762Y-136673156D01*
X75553156Y-136554762D01*
X75564105Y-136547446D01*
X75692374Y-136461739D01*
X75847064Y-136397665D01*
X76011282Y-136365000D01*
X76178718Y-136365000D01*
X76342936Y-136397665D01*
G37*
G36*
X78882936Y-136397665D02*
G01*
X78947010Y-136424205D01*
X79037625Y-136461739D01*
X79037627Y-136461740D01*
X79037626Y-136461740D01*
X79176844Y-136554762D01*
X79295238Y-136673156D01*
X79388260Y-136812374D01*
X79452335Y-136967064D01*
X79485000Y-137131282D01*
X79485000Y-137298718D01*
X79452335Y-137462936D01*
X79388260Y-137617626D01*
X79295238Y-137756844D01*
X79176844Y-137875238D01*
X79037626Y-137968260D01*
X78882936Y-138032335D01*
X78718718Y-138065000D01*
X78551282Y-138065000D01*
X78387064Y-138032335D01*
X78232374Y-137968260D01*
X78093156Y-137875238D01*
X77974762Y-137756844D01*
X77881740Y-137617626D01*
X77881739Y-137617625D01*
X77817665Y-137462935D01*
X77785000Y-137298718D01*
X77785000Y-137131281D01*
X77817665Y-136967064D01*
X77881739Y-136812374D01*
X77974760Y-136673159D01*
X77974762Y-136673156D01*
X78093156Y-136554762D01*
X78104105Y-136547446D01*
X78232374Y-136461739D01*
X78387064Y-136397665D01*
X78551282Y-136365000D01*
X78718718Y-136365000D01*
X78882936Y-136397665D01*
G37*
G36*
X81422936Y-136397665D02*
G01*
X81487010Y-136424205D01*
X81577625Y-136461739D01*
X81577627Y-136461740D01*
X81577626Y-136461740D01*
X81716844Y-136554762D01*
X81835238Y-136673156D01*
X81928260Y-136812374D01*
X81992335Y-136967064D01*
X82025000Y-137131282D01*
X82025000Y-137298718D01*
X81992335Y-137462936D01*
X81928260Y-137617626D01*
X81835238Y-137756844D01*
X81716844Y-137875238D01*
X81577626Y-137968260D01*
X81422936Y-138032335D01*
X81258718Y-138065000D01*
X81091282Y-138065000D01*
X80927064Y-138032335D01*
X80772374Y-137968260D01*
X80633156Y-137875238D01*
X80514762Y-137756844D01*
X80421740Y-137617626D01*
X80421739Y-137617625D01*
X80357665Y-137462935D01*
X80325000Y-137298718D01*
X80325000Y-137131281D01*
X80357665Y-136967064D01*
X80421739Y-136812374D01*
X80514760Y-136673159D01*
X80514762Y-136673156D01*
X80633156Y-136554762D01*
X80644105Y-136547446D01*
X80772374Y-136461739D01*
X80927064Y-136397665D01*
X81091282Y-136365000D01*
X81258718Y-136365000D01*
X81422936Y-136397665D01*
G37*
G36*
X83962936Y-136397665D02*
G01*
X84027010Y-136424205D01*
X84117625Y-136461739D01*
X84117627Y-136461740D01*
X84117626Y-136461740D01*
X84256844Y-136554762D01*
X84375238Y-136673156D01*
X84468260Y-136812374D01*
X84532335Y-136967064D01*
X84565000Y-137131282D01*
X84565000Y-137298718D01*
X84532335Y-137462936D01*
X84468260Y-137617626D01*
X84375238Y-137756844D01*
X84256844Y-137875238D01*
X84117626Y-137968260D01*
X83962936Y-138032335D01*
X83798718Y-138065000D01*
X83631282Y-138065000D01*
X83467064Y-138032335D01*
X83312374Y-137968260D01*
X83173156Y-137875238D01*
X83054762Y-137756844D01*
X82961740Y-137617626D01*
X82961739Y-137617625D01*
X82897665Y-137462935D01*
X82865000Y-137298718D01*
X82865000Y-137131281D01*
X82897665Y-136967064D01*
X82961739Y-136812374D01*
X83054760Y-136673159D01*
X83054762Y-136673156D01*
X83173156Y-136554762D01*
X83184105Y-136547446D01*
X83312374Y-136461739D01*
X83467064Y-136397665D01*
X83631282Y-136365000D01*
X83798718Y-136365000D01*
X83962936Y-136397665D01*
G37*
G36*
X88719675Y-135867857D02*
G01*
X88719676Y-135867857D01*
X88719678Y-135867858D01*
X88862976Y-135927214D01*
X88991940Y-136013385D01*
X89101616Y-136123061D01*
X89187787Y-136252025D01*
X89247143Y-136395323D01*
X89277402Y-136547447D01*
X89277402Y-136702551D01*
X89247143Y-136854675D01*
X89187787Y-136997973D01*
X89101616Y-137126937D01*
X88991940Y-137236613D01*
X88862976Y-137322784D01*
X88719678Y-137382140D01*
X88605585Y-137404834D01*
X88567555Y-137412399D01*
X88567554Y-137412399D01*
X88412450Y-137412399D01*
X88412449Y-137412399D01*
X88361742Y-137402312D01*
X88260326Y-137382140D01*
X88117028Y-137322784D01*
X87988064Y-137236613D01*
X87878388Y-137126937D01*
X87792217Y-136997973D01*
X87732861Y-136854675D01*
X87702602Y-136702551D01*
X87702602Y-136547447D01*
X87732395Y-136397665D01*
X87732860Y-136395325D01*
X87792218Y-136252023D01*
X87878386Y-136123063D01*
X87988066Y-136013383D01*
X88117026Y-135927215D01*
X88260328Y-135867857D01*
X88412449Y-135837599D01*
X88567555Y-135837599D01*
X88719675Y-135867857D01*
G37*
G36*
X91719674Y-135867857D02*
G01*
X91719675Y-135867857D01*
X91719677Y-135867858D01*
X91862975Y-135927214D01*
X91991939Y-136013385D01*
X92101615Y-136123061D01*
X92187786Y-136252025D01*
X92247142Y-136395323D01*
X92277401Y-136547447D01*
X92277401Y-136702551D01*
X92247142Y-136854675D01*
X92187786Y-136997973D01*
X92101615Y-137126937D01*
X91991939Y-137236613D01*
X91862975Y-137322784D01*
X91719677Y-137382140D01*
X91605584Y-137404834D01*
X91567554Y-137412399D01*
X91567553Y-137412399D01*
X91412449Y-137412399D01*
X91412448Y-137412399D01*
X91361741Y-137402312D01*
X91260325Y-137382140D01*
X91117027Y-137322784D01*
X90988063Y-137236613D01*
X90878387Y-137126937D01*
X90792216Y-136997973D01*
X90732860Y-136854675D01*
X90702601Y-136702551D01*
X90702601Y-136547447D01*
X90732394Y-136397665D01*
X90732859Y-136395325D01*
X90792217Y-136252023D01*
X90878385Y-136123063D01*
X90988065Y-136013383D01*
X91117025Y-135927215D01*
X91260327Y-135867857D01*
X91412448Y-135837599D01*
X91567554Y-135837599D01*
X91719674Y-135867857D01*
G37*
G36*
X94719673Y-135867857D02*
G01*
X94719674Y-135867857D01*
X94719676Y-135867858D01*
X94862974Y-135927214D01*
X94991938Y-136013385D01*
X95101614Y-136123061D01*
X95187785Y-136252025D01*
X95247141Y-136395323D01*
X95277400Y-136547447D01*
X95277400Y-136702551D01*
X95247141Y-136854675D01*
X95187785Y-136997973D01*
X95101614Y-137126937D01*
X94991938Y-137236613D01*
X94862974Y-137322784D01*
X94719676Y-137382140D01*
X94605583Y-137404834D01*
X94567553Y-137412399D01*
X94567552Y-137412399D01*
X94412448Y-137412399D01*
X94412447Y-137412399D01*
X94361740Y-137402312D01*
X94260324Y-137382140D01*
X94117026Y-137322784D01*
X93988062Y-137236613D01*
X93878386Y-137126937D01*
X93792215Y-136997973D01*
X93732859Y-136854675D01*
X93702600Y-136702551D01*
X93702600Y-136547447D01*
X93732393Y-136397665D01*
X93732858Y-136395325D01*
X93792216Y-136252023D01*
X93878384Y-136123063D01*
X93988064Y-136013383D01*
X94117024Y-135927215D01*
X94260326Y-135867857D01*
X94412447Y-135837599D01*
X94567553Y-135837599D01*
X94719673Y-135867857D01*
G37*
G36*
X97719672Y-135867857D02*
G01*
X97719673Y-135867857D01*
X97719675Y-135867858D01*
X97862973Y-135927214D01*
X97991937Y-136013385D01*
X98101613Y-136123061D01*
X98187784Y-136252025D01*
X98247140Y-136395323D01*
X98277399Y-136547447D01*
X98277399Y-136702551D01*
X98247140Y-136854675D01*
X98187784Y-136997973D01*
X98101613Y-137126937D01*
X97991937Y-137236613D01*
X97862973Y-137322784D01*
X97719675Y-137382140D01*
X97605582Y-137404834D01*
X97567552Y-137412399D01*
X97567551Y-137412399D01*
X97412447Y-137412399D01*
X97412446Y-137412399D01*
X97361739Y-137402312D01*
X97260323Y-137382140D01*
X97117025Y-137322784D01*
X96988061Y-137236613D01*
X96878385Y-137126937D01*
X96792214Y-136997973D01*
X96732858Y-136854675D01*
X96702599Y-136702551D01*
X96702599Y-136547447D01*
X96732392Y-136397665D01*
X96732857Y-136395325D01*
X96792215Y-136252023D01*
X96878383Y-136123063D01*
X96988063Y-136013383D01*
X97117023Y-135927215D01*
X97260325Y-135867857D01*
X97412446Y-135837599D01*
X97567552Y-135837599D01*
X97719672Y-135867857D01*
G37*
G36*
X76945000Y-135525000D02*
G01*
X76944996Y-135525000D01*
X75245004Y-135525000D01*
X75245000Y-135525000D01*
X75245000Y-133825000D01*
X76945000Y-133825000D01*
X76945000Y-135525000D01*
G37*
G36*
X78882936Y-133857665D02*
G01*
X78947010Y-133884205D01*
X79037625Y-133921739D01*
X79037627Y-133921740D01*
X79037626Y-133921740D01*
X79176844Y-134014762D01*
X79295238Y-134133156D01*
X79388260Y-134272374D01*
X79452335Y-134427064D01*
X79485000Y-134591282D01*
X79485000Y-134758718D01*
X79452335Y-134922936D01*
X79388260Y-135077626D01*
X79295238Y-135216844D01*
X79176844Y-135335238D01*
X79037626Y-135428260D01*
X78882936Y-135492335D01*
X78718718Y-135525000D01*
X78551282Y-135525000D01*
X78387064Y-135492335D01*
X78232374Y-135428260D01*
X78093156Y-135335238D01*
X77974762Y-135216844D01*
X77881740Y-135077626D01*
X77881739Y-135077625D01*
X77817665Y-134922935D01*
X77785000Y-134758718D01*
X77785000Y-134591281D01*
X77817665Y-134427064D01*
X77881739Y-134272374D01*
X77974760Y-134133159D01*
X77974762Y-134133156D01*
X78093156Y-134014762D01*
X78093786Y-134014340D01*
X78232374Y-133921739D01*
X78387064Y-133857665D01*
X78551282Y-133825000D01*
X78718718Y-133825000D01*
X78882936Y-133857665D01*
G37*
G36*
X81422936Y-133857665D02*
G01*
X81487010Y-133884205D01*
X81577625Y-133921739D01*
X81577627Y-133921740D01*
X81577626Y-133921740D01*
X81716844Y-134014762D01*
X81835238Y-134133156D01*
X81928260Y-134272374D01*
X81992335Y-134427064D01*
X82025000Y-134591282D01*
X82025000Y-134758718D01*
X81992335Y-134922936D01*
X81928260Y-135077626D01*
X81835238Y-135216844D01*
X81716844Y-135335238D01*
X81577626Y-135428260D01*
X81422936Y-135492335D01*
X81258718Y-135525000D01*
X81091282Y-135525000D01*
X80927064Y-135492335D01*
X80772374Y-135428260D01*
X80633156Y-135335238D01*
X80514762Y-135216844D01*
X80421740Y-135077626D01*
X80421739Y-135077625D01*
X80357665Y-134922935D01*
X80325000Y-134758718D01*
X80325000Y-134591281D01*
X80357665Y-134427064D01*
X80421739Y-134272374D01*
X80514760Y-134133159D01*
X80514762Y-134133156D01*
X80633156Y-134014762D01*
X80633786Y-134014340D01*
X80772374Y-133921739D01*
X80927064Y-133857665D01*
X81091282Y-133825000D01*
X81258718Y-133825000D01*
X81422936Y-133857665D01*
G37*
G36*
X83962936Y-133857665D02*
G01*
X84027010Y-133884205D01*
X84117625Y-133921739D01*
X84117627Y-133921740D01*
X84117626Y-133921740D01*
X84256844Y-134014762D01*
X84375238Y-134133156D01*
X84468260Y-134272374D01*
X84532335Y-134427064D01*
X84565000Y-134591282D01*
X84565000Y-134758718D01*
X84532335Y-134922936D01*
X84468260Y-135077626D01*
X84375238Y-135216844D01*
X84256844Y-135335238D01*
X84117626Y-135428260D01*
X83962936Y-135492335D01*
X83798718Y-135525000D01*
X83631282Y-135525000D01*
X83467064Y-135492335D01*
X83312374Y-135428260D01*
X83173156Y-135335238D01*
X83054762Y-135216844D01*
X82961740Y-135077626D01*
X82961739Y-135077625D01*
X82897665Y-134922935D01*
X82865000Y-134758718D01*
X82865000Y-134591281D01*
X82897665Y-134427064D01*
X82961739Y-134272374D01*
X83054760Y-134133159D01*
X83054762Y-134133156D01*
X83173156Y-134014762D01*
X83173786Y-134014340D01*
X83312374Y-133921739D01*
X83467064Y-133857665D01*
X83631282Y-133825000D01*
X83798718Y-133825000D01*
X83962936Y-133857665D01*
G37*
G36*
X88719675Y-132867858D02*
G01*
X88719676Y-132867858D01*
X88719678Y-132867859D01*
X88862976Y-132927215D01*
X88991940Y-133013386D01*
X89101616Y-133123062D01*
X89187787Y-133252026D01*
X89247143Y-133395324D01*
X89277402Y-133547448D01*
X89277402Y-133702552D01*
X89247143Y-133854676D01*
X89187787Y-133997974D01*
X89101616Y-134126938D01*
X88991940Y-134236614D01*
X88862976Y-134322785D01*
X88719678Y-134382141D01*
X88605585Y-134404835D01*
X88567555Y-134412400D01*
X88567554Y-134412400D01*
X88412450Y-134412400D01*
X88412449Y-134412400D01*
X88361742Y-134402313D01*
X88260326Y-134382141D01*
X88117028Y-134322785D01*
X87988064Y-134236614D01*
X87878388Y-134126938D01*
X87792217Y-133997974D01*
X87732861Y-133854676D01*
X87702602Y-133702552D01*
X87702602Y-133547448D01*
X87702602Y-133547447D01*
X87732860Y-133395326D01*
X87792218Y-133252024D01*
X87878386Y-133123064D01*
X87988066Y-133013384D01*
X88117026Y-132927216D01*
X88260328Y-132867858D01*
X88412449Y-132837600D01*
X88567555Y-132837600D01*
X88719675Y-132867858D01*
G37*
G36*
X91719674Y-132867858D02*
G01*
X91719675Y-132867858D01*
X91719677Y-132867859D01*
X91862975Y-132927215D01*
X91991939Y-133013386D01*
X92101615Y-133123062D01*
X92187786Y-133252026D01*
X92247142Y-133395324D01*
X92277401Y-133547448D01*
X92277401Y-133702552D01*
X92247142Y-133854676D01*
X92187786Y-133997974D01*
X92101615Y-134126938D01*
X91991939Y-134236614D01*
X91862975Y-134322785D01*
X91719677Y-134382141D01*
X91605584Y-134404835D01*
X91567554Y-134412400D01*
X91567553Y-134412400D01*
X91412449Y-134412400D01*
X91412448Y-134412400D01*
X91361741Y-134402313D01*
X91260325Y-134382141D01*
X91117027Y-134322785D01*
X90988063Y-134236614D01*
X90878387Y-134126938D01*
X90792216Y-133997974D01*
X90732860Y-133854676D01*
X90702601Y-133702552D01*
X90702601Y-133547448D01*
X90702601Y-133547447D01*
X90732859Y-133395326D01*
X90792217Y-133252024D01*
X90878385Y-133123064D01*
X90988065Y-133013384D01*
X91117025Y-132927216D01*
X91260327Y-132867858D01*
X91412448Y-132837600D01*
X91567554Y-132837600D01*
X91719674Y-132867858D01*
G37*
G36*
X94719673Y-132867858D02*
G01*
X94719674Y-132867858D01*
X94719676Y-132867859D01*
X94862974Y-132927215D01*
X94991938Y-133013386D01*
X95101614Y-133123062D01*
X95187785Y-133252026D01*
X95247141Y-133395324D01*
X95277400Y-133547448D01*
X95277400Y-133702552D01*
X95247141Y-133854676D01*
X95187785Y-133997974D01*
X95101614Y-134126938D01*
X94991938Y-134236614D01*
X94862974Y-134322785D01*
X94719676Y-134382141D01*
X94605583Y-134404835D01*
X94567553Y-134412400D01*
X94567552Y-134412400D01*
X94412448Y-134412400D01*
X94412447Y-134412400D01*
X94361740Y-134402313D01*
X94260324Y-134382141D01*
X94117026Y-134322785D01*
X93988062Y-134236614D01*
X93878386Y-134126938D01*
X93792215Y-133997974D01*
X93732859Y-133854676D01*
X93702600Y-133702552D01*
X93702600Y-133547448D01*
X93702600Y-133547447D01*
X93732858Y-133395326D01*
X93792216Y-133252024D01*
X93878384Y-133123064D01*
X93988064Y-133013384D01*
X94117024Y-132927216D01*
X94260326Y-132867858D01*
X94412447Y-132837600D01*
X94567553Y-132837600D01*
X94719673Y-132867858D01*
G37*
G36*
X97719672Y-132867858D02*
G01*
X97719673Y-132867858D01*
X97719675Y-132867859D01*
X97862973Y-132927215D01*
X97991937Y-133013386D01*
X98101613Y-133123062D01*
X98187784Y-133252026D01*
X98247140Y-133395324D01*
X98277399Y-133547448D01*
X98277399Y-133702552D01*
X98247140Y-133854676D01*
X98187784Y-133997974D01*
X98101613Y-134126938D01*
X97991937Y-134236614D01*
X97862973Y-134322785D01*
X97719675Y-134382141D01*
X97605582Y-134404835D01*
X97567552Y-134412400D01*
X97567551Y-134412400D01*
X97412447Y-134412400D01*
X97412446Y-134412400D01*
X97361739Y-134402313D01*
X97260323Y-134382141D01*
X97117025Y-134322785D01*
X96988061Y-134236614D01*
X96878385Y-134126938D01*
X96792214Y-133997974D01*
X96732858Y-133854676D01*
X96702599Y-133702552D01*
X96702599Y-133547448D01*
X96702599Y-133547447D01*
X96732857Y-133395326D01*
X96792215Y-133252024D01*
X96878383Y-133123064D01*
X96988063Y-133013384D01*
X97117023Y-132927216D01*
X97260325Y-132867858D01*
X97412446Y-132837600D01*
X97567552Y-132837600D01*
X97719672Y-132867858D01*
G37*
G36*
X104450000Y-132650000D02*
G01*
X104449996Y-132650000D01*
X102750004Y-132650000D01*
X102750000Y-132650000D01*
X102750000Y-130950000D01*
X104450000Y-130950000D01*
X104450000Y-132650000D01*
G37*
G36*
X77562936Y-128702665D02*
G01*
X77627010Y-128729205D01*
X77717625Y-128766739D01*
X77717627Y-128766740D01*
X77717626Y-128766740D01*
X77856844Y-128859762D01*
X77975238Y-128978156D01*
X78068260Y-129117374D01*
X78132335Y-129272064D01*
X78165000Y-129436282D01*
X78165000Y-129603718D01*
X78132335Y-129767936D01*
X78068260Y-129922626D01*
X77975238Y-130061844D01*
X77856844Y-130180238D01*
X77717626Y-130273260D01*
X77562936Y-130337335D01*
X77398718Y-130370000D01*
X77231282Y-130370000D01*
X77067064Y-130337335D01*
X76912374Y-130273260D01*
X76773156Y-130180238D01*
X76654762Y-130061844D01*
X76561740Y-129922626D01*
X76561739Y-129922625D01*
X76497665Y-129767935D01*
X76465000Y-129603718D01*
X76465000Y-129436281D01*
X76497665Y-129272064D01*
X76561739Y-129117374D01*
X76654760Y-128978159D01*
X76654762Y-128978156D01*
X76773156Y-128859762D01*
X76776730Y-128857374D01*
X76912374Y-128766739D01*
X77067064Y-128702665D01*
X77231282Y-128670000D01*
X77398718Y-128670000D01*
X77562936Y-128702665D01*
G37*
G36*
X83140000Y-130195000D02*
G01*
X83139996Y-130195000D01*
X81440004Y-130195000D01*
X81440000Y-130195000D01*
X81440000Y-128495000D01*
X83140000Y-128495000D01*
X83140000Y-130195000D01*
G37*
G36*
X103847936Y-128442665D02*
G01*
X103912010Y-128469205D01*
X104002625Y-128506739D01*
X104002627Y-128506740D01*
X104002626Y-128506740D01*
X104141844Y-128599762D01*
X104260238Y-128718156D01*
X104353260Y-128857374D01*
X104417335Y-129012064D01*
X104450000Y-129176282D01*
X104450000Y-129343718D01*
X104417335Y-129507936D01*
X104353260Y-129662626D01*
X104260238Y-129801844D01*
X104141844Y-129920238D01*
X104002626Y-130013260D01*
X103847936Y-130077335D01*
X103683718Y-130110000D01*
X103516282Y-130110000D01*
X103352064Y-130077335D01*
X103197374Y-130013260D01*
X103058156Y-129920238D01*
X102939762Y-129801844D01*
X102846740Y-129662626D01*
X102846739Y-129662625D01*
X102782665Y-129507935D01*
X102750000Y-129343718D01*
X102750000Y-129176281D01*
X102782665Y-129012064D01*
X102846739Y-128857374D01*
X102939760Y-128718159D01*
X102939762Y-128718156D01*
X103058156Y-128599762D01*
X103058786Y-128599340D01*
X103197374Y-128506739D01*
X103352064Y-128442665D01*
X103516282Y-128410000D01*
X103683718Y-128410000D01*
X103847936Y-128442665D01*
G37*
G36*
X77562936Y-126162665D02*
G01*
X77627010Y-126189205D01*
X77717625Y-126226739D01*
X77717627Y-126226740D01*
X77717626Y-126226740D01*
X77856844Y-126319762D01*
X77975238Y-126438156D01*
X78068260Y-126577374D01*
X78132335Y-126732064D01*
X78150418Y-126822973D01*
X78163495Y-126888718D01*
X78165000Y-126896282D01*
X78165000Y-127063718D01*
X78132335Y-127227936D01*
X78068260Y-127382626D01*
X77975238Y-127521844D01*
X77856844Y-127640238D01*
X77717626Y-127733260D01*
X77562936Y-127797335D01*
X77398718Y-127830000D01*
X77231282Y-127830000D01*
X77067064Y-127797335D01*
X76912374Y-127733260D01*
X76773156Y-127640238D01*
X76654762Y-127521844D01*
X76561740Y-127382626D01*
X76561739Y-127382625D01*
X76497665Y-127227935D01*
X76493528Y-127207140D01*
X76465000Y-127063718D01*
X76465000Y-126896282D01*
X76466505Y-126888718D01*
X76497665Y-126732064D01*
X76561739Y-126577374D01*
X76654760Y-126438159D01*
X76654762Y-126438156D01*
X76773156Y-126319762D01*
X76776730Y-126317374D01*
X76912374Y-126226739D01*
X77067064Y-126162665D01*
X77231282Y-126130000D01*
X77398718Y-126130000D01*
X77562936Y-126162665D01*
G37*
G36*
X82537936Y-125987665D02*
G01*
X82602010Y-126014205D01*
X82692625Y-126051739D01*
X82692627Y-126051740D01*
X82692626Y-126051740D01*
X82831844Y-126144762D01*
X82950238Y-126263156D01*
X83043260Y-126402374D01*
X83107335Y-126557064D01*
X83140000Y-126721282D01*
X83140000Y-126888718D01*
X83107335Y-127052936D01*
X83043260Y-127207626D01*
X82950238Y-127346844D01*
X82831844Y-127465238D01*
X82692626Y-127558260D01*
X82537936Y-127622335D01*
X82373718Y-127655000D01*
X82206282Y-127655000D01*
X82042064Y-127622335D01*
X81887374Y-127558260D01*
X81748156Y-127465238D01*
X81629762Y-127346844D01*
X81567466Y-127253611D01*
X81536739Y-127207625D01*
X81476260Y-127061614D01*
X81472665Y-127052936D01*
X81440000Y-126888718D01*
X81440000Y-126721282D01*
X81456908Y-126636282D01*
X81472665Y-126557064D01*
X81536739Y-126402374D01*
X81629760Y-126263159D01*
X81629762Y-126263156D01*
X81748156Y-126144762D01*
X81770249Y-126130000D01*
X81887374Y-126051739D01*
X82042064Y-125987665D01*
X82206282Y-125955000D01*
X82373718Y-125955000D01*
X82537936Y-125987665D01*
G37*
G36*
X103847936Y-125902665D02*
G01*
X103912010Y-125929205D01*
X104002625Y-125966739D01*
X104002627Y-125966740D01*
X104002626Y-125966740D01*
X104141844Y-126059762D01*
X104260238Y-126178156D01*
X104353260Y-126317374D01*
X104417335Y-126472064D01*
X104450000Y-126636282D01*
X104450000Y-126803718D01*
X104417335Y-126967936D01*
X104353260Y-127122626D01*
X104260238Y-127261844D01*
X104141844Y-127380238D01*
X104002626Y-127473260D01*
X103847936Y-127537335D01*
X103683718Y-127570000D01*
X103516282Y-127570000D01*
X103352064Y-127537335D01*
X103197374Y-127473260D01*
X103058156Y-127380238D01*
X102939762Y-127261844D01*
X102863550Y-127147784D01*
X102846739Y-127122625D01*
X102782665Y-126967935D01*
X102750000Y-126803718D01*
X102750000Y-126636281D01*
X102782665Y-126472064D01*
X102846739Y-126317374D01*
X102939760Y-126178159D01*
X102939762Y-126178156D01*
X103058156Y-126059762D01*
X103070163Y-126051739D01*
X103197374Y-125966739D01*
X103352064Y-125902665D01*
X103516282Y-125870000D01*
X103683718Y-125870000D01*
X103847936Y-125902665D01*
G37*
G36*
X88744676Y-125692857D02*
G01*
X88744677Y-125692857D01*
X88744679Y-125692858D01*
X88887977Y-125752214D01*
X89016941Y-125838385D01*
X89126617Y-125948061D01*
X89212788Y-126077025D01*
X89272144Y-126220323D01*
X89302403Y-126372447D01*
X89302403Y-126527551D01*
X89272144Y-126679675D01*
X89212788Y-126822973D01*
X89126617Y-126951937D01*
X89016941Y-127061613D01*
X88887977Y-127147784D01*
X88744679Y-127207140D01*
X88640134Y-127227935D01*
X88592556Y-127237399D01*
X88592555Y-127237399D01*
X88437451Y-127237399D01*
X88437450Y-127237399D01*
X88386743Y-127227312D01*
X88285327Y-127207140D01*
X88142029Y-127147784D01*
X88013065Y-127061613D01*
X87903389Y-126951937D01*
X87817218Y-126822973D01*
X87757862Y-126679675D01*
X87749230Y-126636282D01*
X87727603Y-126527551D01*
X87727603Y-126372446D01*
X87757861Y-126220325D01*
X87817219Y-126077023D01*
X87903387Y-125948063D01*
X88013067Y-125838383D01*
X88142027Y-125752215D01*
X88285329Y-125692857D01*
X88437450Y-125662599D01*
X88592556Y-125662599D01*
X88744676Y-125692857D01*
G37*
G36*
X91744675Y-125692857D02*
G01*
X91744676Y-125692857D01*
X91744678Y-125692858D01*
X91887976Y-125752214D01*
X92016940Y-125838385D01*
X92126616Y-125948061D01*
X92212787Y-126077025D01*
X92272143Y-126220323D01*
X92302402Y-126372447D01*
X92302402Y-126527551D01*
X92272143Y-126679675D01*
X92212787Y-126822973D01*
X92126616Y-126951937D01*
X92016940Y-127061613D01*
X91887976Y-127147784D01*
X91744678Y-127207140D01*
X91640133Y-127227935D01*
X91592555Y-127237399D01*
X91592554Y-127237399D01*
X91437450Y-127237399D01*
X91437449Y-127237399D01*
X91386742Y-127227312D01*
X91285326Y-127207140D01*
X91142028Y-127147784D01*
X91013064Y-127061613D01*
X90903388Y-126951937D01*
X90817217Y-126822973D01*
X90757861Y-126679675D01*
X90749229Y-126636282D01*
X90727602Y-126527551D01*
X90727602Y-126372446D01*
X90757860Y-126220325D01*
X90817218Y-126077023D01*
X90903386Y-125948063D01*
X91013066Y-125838383D01*
X91142026Y-125752215D01*
X91285328Y-125692857D01*
X91437449Y-125662599D01*
X91592555Y-125662599D01*
X91744675Y-125692857D01*
G37*
G36*
X94744674Y-125692857D02*
G01*
X94744675Y-125692857D01*
X94744677Y-125692858D01*
X94887975Y-125752214D01*
X95016939Y-125838385D01*
X95126615Y-125948061D01*
X95212786Y-126077025D01*
X95272142Y-126220323D01*
X95302401Y-126372447D01*
X95302401Y-126527551D01*
X95272142Y-126679675D01*
X95212786Y-126822973D01*
X95126615Y-126951937D01*
X95016939Y-127061613D01*
X94887975Y-127147784D01*
X94744677Y-127207140D01*
X94640132Y-127227935D01*
X94592554Y-127237399D01*
X94592553Y-127237399D01*
X94437449Y-127237399D01*
X94437448Y-127237399D01*
X94386741Y-127227312D01*
X94285325Y-127207140D01*
X94142027Y-127147784D01*
X94013063Y-127061613D01*
X93903387Y-126951937D01*
X93817216Y-126822973D01*
X93757860Y-126679675D01*
X93749228Y-126636282D01*
X93727601Y-126527551D01*
X93727601Y-126372446D01*
X93757859Y-126220325D01*
X93817217Y-126077023D01*
X93903385Y-125948063D01*
X94013065Y-125838383D01*
X94142025Y-125752215D01*
X94285327Y-125692857D01*
X94437448Y-125662599D01*
X94592554Y-125662599D01*
X94744674Y-125692857D01*
G37*
G36*
X97744673Y-125692857D02*
G01*
X97744674Y-125692857D01*
X97744676Y-125692858D01*
X97887974Y-125752214D01*
X98016938Y-125838385D01*
X98126614Y-125948061D01*
X98212785Y-126077025D01*
X98272141Y-126220323D01*
X98302400Y-126372447D01*
X98302400Y-126527551D01*
X98272141Y-126679675D01*
X98212785Y-126822973D01*
X98126614Y-126951937D01*
X98016938Y-127061613D01*
X97887974Y-127147784D01*
X97744676Y-127207140D01*
X97640131Y-127227935D01*
X97592553Y-127237399D01*
X97592552Y-127237399D01*
X97437448Y-127237399D01*
X97437447Y-127237399D01*
X97386740Y-127227312D01*
X97285324Y-127207140D01*
X97142026Y-127147784D01*
X97013062Y-127061613D01*
X96903386Y-126951937D01*
X96817215Y-126822973D01*
X96757859Y-126679675D01*
X96749227Y-126636282D01*
X96727600Y-126527551D01*
X96727600Y-126372446D01*
X96757858Y-126220325D01*
X96817216Y-126077023D01*
X96903384Y-125948063D01*
X97013064Y-125838383D01*
X97142024Y-125752215D01*
X97285326Y-125692857D01*
X97437447Y-125662599D01*
X97592553Y-125662599D01*
X97744673Y-125692857D01*
G37*
G36*
X77562936Y-123622665D02*
G01*
X77627010Y-123649205D01*
X77717625Y-123686739D01*
X77717627Y-123686740D01*
X77717626Y-123686740D01*
X77856844Y-123779762D01*
X77975238Y-123898156D01*
X78068260Y-124037374D01*
X78132335Y-124192064D01*
X78159580Y-124329035D01*
X78163495Y-124348718D01*
X78165000Y-124356282D01*
X78165000Y-124523718D01*
X78132335Y-124687936D01*
X78068260Y-124842626D01*
X77975238Y-124981844D01*
X77856844Y-125100238D01*
X77717626Y-125193260D01*
X77562936Y-125257335D01*
X77398718Y-125290000D01*
X77231282Y-125290000D01*
X77067064Y-125257335D01*
X76912374Y-125193260D01*
X76773156Y-125100238D01*
X76654762Y-124981844D01*
X76561740Y-124842626D01*
X76561739Y-124842625D01*
X76497665Y-124687935D01*
X76465000Y-124523718D01*
X76465000Y-124356281D01*
X76497665Y-124192064D01*
X76561739Y-124037374D01*
X76654760Y-123898159D01*
X76654762Y-123898156D01*
X76773156Y-123779762D01*
X76776730Y-123777374D01*
X76912374Y-123686739D01*
X77067064Y-123622665D01*
X77231282Y-123590000D01*
X77398718Y-123590000D01*
X77562936Y-123622665D01*
G37*
G36*
X82537936Y-123447665D02*
G01*
X82602010Y-123474205D01*
X82692625Y-123511739D01*
X82738611Y-123542466D01*
X82831844Y-123604762D01*
X82950238Y-123723156D01*
X83043260Y-123862374D01*
X83107335Y-124017064D01*
X83140000Y-124181282D01*
X83140000Y-124348718D01*
X83107335Y-124512936D01*
X83043260Y-124667626D01*
X82950238Y-124806844D01*
X82831844Y-124925238D01*
X82692626Y-125018260D01*
X82537936Y-125082335D01*
X82373718Y-125115000D01*
X82206282Y-125115000D01*
X82042064Y-125082335D01*
X81887374Y-125018260D01*
X81748156Y-124925238D01*
X81629762Y-124806844D01*
X81567466Y-124713611D01*
X81536739Y-124667625D01*
X81472665Y-124512935D01*
X81455757Y-124427936D01*
X81440000Y-124348718D01*
X81440000Y-124181282D01*
X81456908Y-124096282D01*
X81472665Y-124017064D01*
X81536739Y-123862374D01*
X81629760Y-123723159D01*
X81629762Y-123723156D01*
X81748156Y-123604762D01*
X81770249Y-123590000D01*
X81887374Y-123511739D01*
X82042064Y-123447665D01*
X82206282Y-123415000D01*
X82373718Y-123415000D01*
X82537936Y-123447665D01*
G37*
G36*
X103847936Y-123362665D02*
G01*
X103871554Y-123372448D01*
X104002625Y-123426739D01*
X104002627Y-123426740D01*
X104002626Y-123426740D01*
X104141844Y-123519762D01*
X104260238Y-123638156D01*
X104353260Y-123777374D01*
X104417335Y-123932064D01*
X104450000Y-124096282D01*
X104450000Y-124263718D01*
X104417335Y-124427936D01*
X104353260Y-124582626D01*
X104260238Y-124721844D01*
X104141844Y-124840238D01*
X104002626Y-124933260D01*
X103847936Y-124997335D01*
X103683718Y-125030000D01*
X103516282Y-125030000D01*
X103352064Y-124997335D01*
X103197374Y-124933260D01*
X103058156Y-124840238D01*
X102939762Y-124721844D01*
X102846740Y-124582626D01*
X102846739Y-124582625D01*
X102782665Y-124427935D01*
X102750000Y-124263718D01*
X102750000Y-124096281D01*
X102782665Y-123932064D01*
X102846739Y-123777374D01*
X102939760Y-123638159D01*
X102939762Y-123638156D01*
X103058156Y-123519762D01*
X103070163Y-123511739D01*
X103197374Y-123426739D01*
X103352064Y-123362665D01*
X103516282Y-123330000D01*
X103683718Y-123330000D01*
X103847936Y-123362665D01*
G37*
G36*
X88744676Y-122692858D02*
G01*
X88744677Y-122692858D01*
X88744679Y-122692859D01*
X88887977Y-122752215D01*
X89016941Y-122838386D01*
X89126617Y-122948062D01*
X89212788Y-123077026D01*
X89272144Y-123220324D01*
X89302403Y-123372448D01*
X89302403Y-123527552D01*
X89272144Y-123679676D01*
X89212788Y-123822974D01*
X89126617Y-123951938D01*
X89016941Y-124061614D01*
X88887977Y-124147785D01*
X88744679Y-124207141D01*
X88630586Y-124229835D01*
X88592556Y-124237400D01*
X88592555Y-124237400D01*
X88437451Y-124237400D01*
X88437450Y-124237400D01*
X88386743Y-124227313D01*
X88285327Y-124207141D01*
X88142029Y-124147785D01*
X88013065Y-124061614D01*
X87903389Y-123951938D01*
X87817218Y-123822974D01*
X87757862Y-123679676D01*
X87740024Y-123590000D01*
X87727603Y-123527552D01*
X87727603Y-123372447D01*
X87757861Y-123220326D01*
X87817219Y-123077024D01*
X87903387Y-122948064D01*
X88013067Y-122838384D01*
X88142027Y-122752216D01*
X88147377Y-122750000D01*
X88285327Y-122692859D01*
X88285329Y-122692858D01*
X88437450Y-122662600D01*
X88592556Y-122662600D01*
X88744676Y-122692858D01*
G37*
G36*
X91744675Y-122692858D02*
G01*
X91744676Y-122692858D01*
X91744678Y-122692859D01*
X91887976Y-122752215D01*
X92016940Y-122838386D01*
X92126616Y-122948062D01*
X92212787Y-123077026D01*
X92272143Y-123220324D01*
X92302402Y-123372448D01*
X92302402Y-123527552D01*
X92272143Y-123679676D01*
X92212787Y-123822974D01*
X92126616Y-123951938D01*
X92016940Y-124061614D01*
X91887976Y-124147785D01*
X91744678Y-124207141D01*
X91630585Y-124229835D01*
X91592555Y-124237400D01*
X91592554Y-124237400D01*
X91437450Y-124237400D01*
X91437449Y-124237400D01*
X91386742Y-124227313D01*
X91285326Y-124207141D01*
X91142028Y-124147785D01*
X91013064Y-124061614D01*
X90903388Y-123951938D01*
X90817217Y-123822974D01*
X90757861Y-123679676D01*
X90740023Y-123590000D01*
X90727602Y-123527552D01*
X90727602Y-123372447D01*
X90757860Y-123220326D01*
X90817218Y-123077024D01*
X90903386Y-122948064D01*
X91013066Y-122838384D01*
X91142026Y-122752216D01*
X91147376Y-122750000D01*
X91285326Y-122692859D01*
X91285328Y-122692858D01*
X91437449Y-122662600D01*
X91592555Y-122662600D01*
X91744675Y-122692858D01*
G37*
G36*
X94744674Y-122692858D02*
G01*
X94744675Y-122692858D01*
X94744677Y-122692859D01*
X94887975Y-122752215D01*
X95016939Y-122838386D01*
X95126615Y-122948062D01*
X95212786Y-123077026D01*
X95272142Y-123220324D01*
X95302401Y-123372448D01*
X95302401Y-123527552D01*
X95272142Y-123679676D01*
X95212786Y-123822974D01*
X95126615Y-123951938D01*
X95016939Y-124061614D01*
X94887975Y-124147785D01*
X94744677Y-124207141D01*
X94630584Y-124229835D01*
X94592554Y-124237400D01*
X94592553Y-124237400D01*
X94437449Y-124237400D01*
X94437448Y-124237400D01*
X94386741Y-124227313D01*
X94285325Y-124207141D01*
X94142027Y-124147785D01*
X94013063Y-124061614D01*
X93903387Y-123951938D01*
X93817216Y-123822974D01*
X93757860Y-123679676D01*
X93740022Y-123590000D01*
X93727601Y-123527552D01*
X93727601Y-123372447D01*
X93757859Y-123220326D01*
X93817217Y-123077024D01*
X93903385Y-122948064D01*
X94013065Y-122838384D01*
X94142025Y-122752216D01*
X94147375Y-122750000D01*
X94285325Y-122692859D01*
X94285327Y-122692858D01*
X94437448Y-122662600D01*
X94592554Y-122662600D01*
X94744674Y-122692858D01*
G37*
G36*
X97744673Y-122692858D02*
G01*
X97744674Y-122692858D01*
X97744676Y-122692859D01*
X97887974Y-122752215D01*
X98016938Y-122838386D01*
X98126614Y-122948062D01*
X98212785Y-123077026D01*
X98272141Y-123220324D01*
X98302400Y-123372448D01*
X98302400Y-123527552D01*
X98272141Y-123679676D01*
X98212785Y-123822974D01*
X98126614Y-123951938D01*
X98016938Y-124061614D01*
X97887974Y-124147785D01*
X97744676Y-124207141D01*
X97630583Y-124229835D01*
X97592553Y-124237400D01*
X97592552Y-124237400D01*
X97437448Y-124237400D01*
X97437447Y-124237400D01*
X97386740Y-124227313D01*
X97285324Y-124207141D01*
X97142026Y-124147785D01*
X97013062Y-124061614D01*
X96903386Y-123951938D01*
X96817215Y-123822974D01*
X96757859Y-123679676D01*
X96740021Y-123590000D01*
X96727600Y-123527552D01*
X96727600Y-123372447D01*
X96757858Y-123220326D01*
X96817216Y-123077024D01*
X96903384Y-122948064D01*
X97013064Y-122838384D01*
X97142024Y-122752216D01*
X97147374Y-122750000D01*
X97285324Y-122692859D01*
X97285326Y-122692858D01*
X97437447Y-122662600D01*
X97592553Y-122662600D01*
X97744673Y-122692858D01*
G37*
G36*
X78165000Y-122750000D02*
G01*
X78164996Y-122750000D01*
X76465004Y-122750000D01*
X76465000Y-122750000D01*
X76465000Y-121050000D01*
X78165000Y-121050000D01*
X78165000Y-122750000D01*
G37*
G36*
X82537936Y-120907665D02*
G01*
X82602010Y-120934205D01*
X82692625Y-120971739D01*
X82692627Y-120971740D01*
X82692626Y-120971740D01*
X82831844Y-121064762D01*
X82950238Y-121183156D01*
X83043260Y-121322374D01*
X83107335Y-121477064D01*
X83140000Y-121641282D01*
X83140000Y-121808718D01*
X83107335Y-121972936D01*
X83043260Y-122127626D01*
X82950238Y-122266844D01*
X82831844Y-122385238D01*
X82692626Y-122478260D01*
X82537936Y-122542335D01*
X82373718Y-122575000D01*
X82206282Y-122575000D01*
X82042064Y-122542335D01*
X81887374Y-122478260D01*
X81748156Y-122385238D01*
X81629762Y-122266844D01*
X81536740Y-122127626D01*
X81536739Y-122127625D01*
X81472665Y-121972935D01*
X81440000Y-121808718D01*
X81440000Y-121641281D01*
X81472665Y-121477064D01*
X81536739Y-121322374D01*
X81629760Y-121183159D01*
X81629762Y-121183156D01*
X81748156Y-121064762D01*
X81770249Y-121050000D01*
X81887374Y-120971739D01*
X82042064Y-120907665D01*
X82206282Y-120875000D01*
X82373718Y-120875000D01*
X82537936Y-120907665D01*
G37*
G36*
X84706316Y-116064255D02*
G01*
X84769330Y-116106359D01*
X84811434Y-116169373D01*
X84811434Y-116169374D01*
X84822487Y-116224941D01*
X84822487Y-117786465D01*
X84811434Y-117842032D01*
X84769330Y-117905046D01*
X84706316Y-117947150D01*
X84650749Y-117958203D01*
X83724225Y-117958203D01*
X83695549Y-117952499D01*
X83668657Y-117947150D01*
X83605643Y-117905046D01*
X83563539Y-117842032D01*
X83552487Y-117786467D01*
X83552487Y-116224937D01*
X83563539Y-116169373D01*
X83605643Y-116106359D01*
X83668657Y-116064255D01*
X83724222Y-116053203D01*
X84650752Y-116053203D01*
X84706316Y-116064255D01*
G37*
G36*
X79658829Y-116058552D02*
G01*
X79721843Y-116100656D01*
X79763947Y-116163670D01*
X79767597Y-116182024D01*
X79775000Y-116219238D01*
X79775000Y-117780762D01*
X79763947Y-117836329D01*
X79721843Y-117899343D01*
X79658829Y-117941447D01*
X79603262Y-117952500D01*
X78676738Y-117952500D01*
X78648577Y-117946898D01*
X78621170Y-117941447D01*
X78558156Y-117899343D01*
X78516052Y-117836329D01*
X78505000Y-117780764D01*
X78505000Y-116219234D01*
X78516052Y-116163670D01*
X78558156Y-116100656D01*
X78621170Y-116058552D01*
X78676735Y-116047500D01*
X79603265Y-116047500D01*
X79658829Y-116058552D01*
G37*
G36*
X82198829Y-116058552D02*
G01*
X82261843Y-116100656D01*
X82303947Y-116163670D01*
X82307597Y-116182024D01*
X82315000Y-116219238D01*
X82315000Y-117780762D01*
X82303947Y-117836329D01*
X82261843Y-117899343D01*
X82198829Y-117941447D01*
X82143262Y-117952500D01*
X81216738Y-117952500D01*
X81188577Y-117946898D01*
X81161170Y-117941447D01*
X81098156Y-117899343D01*
X81056052Y-117836329D01*
X81045000Y-117780764D01*
X81045000Y-116219234D01*
X81056052Y-116163670D01*
X81098156Y-116100656D01*
X81161170Y-116058552D01*
X81216735Y-116047500D01*
X82143265Y-116047500D01*
X82198829Y-116058552D01*
G37*
G36*
X87278829Y-116058552D02*
G01*
X87341843Y-116100656D01*
X87383947Y-116163670D01*
X87387597Y-116182024D01*
X87395000Y-116219238D01*
X87395000Y-117780762D01*
X87383947Y-117836329D01*
X87341843Y-117899343D01*
X87278829Y-117941447D01*
X87223262Y-117952500D01*
X86296738Y-117952500D01*
X86268577Y-117946898D01*
X86241170Y-117941447D01*
X86178156Y-117899343D01*
X86136052Y-117836329D01*
X86125000Y-117780764D01*
X86125000Y-116219234D01*
X86136052Y-116163670D01*
X86178156Y-116100656D01*
X86241170Y-116058552D01*
X86296735Y-116047500D01*
X87223265Y-116047500D01*
X87278829Y-116058552D01*
G37*
G36*
X89818829Y-116058552D02*
G01*
X89881843Y-116100656D01*
X89923947Y-116163670D01*
X89927597Y-116182024D01*
X89935000Y-116219238D01*
X89935000Y-117780762D01*
X89923947Y-117836329D01*
X89881843Y-117899343D01*
X89818829Y-117941447D01*
X89763262Y-117952500D01*
X88836738Y-117952500D01*
X88808577Y-117946898D01*
X88781170Y-117941447D01*
X88718156Y-117899343D01*
X88676052Y-117836329D01*
X88665000Y-117780764D01*
X88665000Y-116219234D01*
X88676052Y-116163670D01*
X88718156Y-116100656D01*
X88781170Y-116058552D01*
X88836735Y-116047500D01*
X89763265Y-116047500D01*
X89818829Y-116058552D01*
G37*
G36*
X92358829Y-116058552D02*
G01*
X92421843Y-116100656D01*
X92463947Y-116163670D01*
X92467597Y-116182024D01*
X92475000Y-116219238D01*
X92475000Y-117780762D01*
X92463947Y-117836329D01*
X92421843Y-117899343D01*
X92358829Y-117941447D01*
X92303262Y-117952500D01*
X91376738Y-117952500D01*
X91348577Y-117946898D01*
X91321170Y-117941447D01*
X91258156Y-117899343D01*
X91216052Y-117836329D01*
X91205000Y-117780764D01*
X91205000Y-116219234D01*
X91216052Y-116163670D01*
X91258156Y-116100656D01*
X91321170Y-116058552D01*
X91376735Y-116047500D01*
X92303265Y-116047500D01*
X92358829Y-116058552D01*
G37*
G36*
X94898829Y-116058552D02*
G01*
X94961843Y-116100656D01*
X95003947Y-116163670D01*
X95007597Y-116182024D01*
X95015000Y-116219238D01*
X95015000Y-117780762D01*
X95003947Y-117836329D01*
X94961843Y-117899343D01*
X94898829Y-117941447D01*
X94843262Y-117952500D01*
X93916738Y-117952500D01*
X93888577Y-117946898D01*
X93861170Y-117941447D01*
X93798156Y-117899343D01*
X93756052Y-117836329D01*
X93745000Y-117780764D01*
X93745000Y-116219234D01*
X93756052Y-116163670D01*
X93798156Y-116100656D01*
X93861170Y-116058552D01*
X93916735Y-116047500D01*
X94843265Y-116047500D01*
X94898829Y-116058552D01*
G37*
G36*
X97438829Y-116058552D02*
G01*
X97501843Y-116100656D01*
X97543947Y-116163670D01*
X97547597Y-116182024D01*
X97555000Y-116219238D01*
X97555000Y-117780762D01*
X97543947Y-117836329D01*
X97501843Y-117899343D01*
X97438829Y-117941447D01*
X97383262Y-117952500D01*
X96456738Y-117952500D01*
X96428577Y-117946898D01*
X96401170Y-117941447D01*
X96338156Y-117899343D01*
X96296052Y-117836329D01*
X96285000Y-117780764D01*
X96285000Y-116219234D01*
X96296052Y-116163670D01*
X96338156Y-116100656D01*
X96401170Y-116058552D01*
X96456735Y-116047500D01*
X97383265Y-116047500D01*
X97438829Y-116058552D01*
G37*
G36*
X99978829Y-116058552D02*
G01*
X100041843Y-116100656D01*
X100083947Y-116163670D01*
X100087597Y-116182024D01*
X100095000Y-116219238D01*
X100095000Y-117780762D01*
X100083947Y-117836329D01*
X100041843Y-117899343D01*
X99978829Y-117941447D01*
X99923262Y-117952500D01*
X98996738Y-117952500D01*
X98968577Y-117946898D01*
X98941170Y-117941447D01*
X98878156Y-117899343D01*
X98836052Y-117836329D01*
X98825000Y-117780764D01*
X98825000Y-116219234D01*
X98836052Y-116163670D01*
X98878156Y-116100656D01*
X98941170Y-116058552D01*
X98996735Y-116047500D01*
X99923265Y-116047500D01*
X99978829Y-116058552D01*
G37*
G36*
X102518829Y-116058552D02*
G01*
X102581843Y-116100656D01*
X102623947Y-116163670D01*
X102627597Y-116182024D01*
X102635000Y-116219238D01*
X102635000Y-117780762D01*
X102623947Y-117836329D01*
X102581843Y-117899343D01*
X102518829Y-117941447D01*
X102463262Y-117952500D01*
X101536738Y-117952500D01*
X101508577Y-117946898D01*
X101481170Y-117941447D01*
X101418156Y-117899343D01*
X101376052Y-117836329D01*
X101365000Y-117780764D01*
X101365000Y-116219234D01*
X101376052Y-116163670D01*
X101418156Y-116100656D01*
X101481170Y-116058552D01*
X101536735Y-116047500D01*
X102463265Y-116047500D01*
X102518829Y-116058552D01*
G37*
G36*
X76350000Y-102010000D02*
G01*
X76349996Y-102010000D01*
X74650004Y-102010000D01*
X74650000Y-102010000D01*
X74650000Y-100310000D01*
X76350000Y-100310000D01*
X76350000Y-102010000D01*
G37*
G36*
X105850000Y-101950000D02*
G01*
X105849996Y-101950000D01*
X104150004Y-101950000D01*
X104150000Y-101950000D01*
X104150000Y-100250000D01*
X105850000Y-100250000D01*
X105850000Y-101950000D01*
G37*
G36*
X75747936Y-97802665D02*
G01*
X75812010Y-97829205D01*
X75902625Y-97866739D01*
X75902627Y-97866740D01*
X75902626Y-97866740D01*
X76041844Y-97959762D01*
X76160238Y-98078156D01*
X76253260Y-98217374D01*
X76317335Y-98372064D01*
X76350000Y-98536282D01*
X76350000Y-98703718D01*
X76317335Y-98867936D01*
X76253260Y-99022626D01*
X76160238Y-99161844D01*
X76041844Y-99280238D01*
X75902626Y-99373260D01*
X75747936Y-99437335D01*
X75583718Y-99470000D01*
X75416282Y-99470000D01*
X75252064Y-99437335D01*
X75097374Y-99373260D01*
X74958156Y-99280238D01*
X74839762Y-99161844D01*
X74746740Y-99022626D01*
X74746739Y-99022625D01*
X74682665Y-98867935D01*
X74650000Y-98703718D01*
X74650000Y-98536281D01*
X74682665Y-98372064D01*
X74746739Y-98217374D01*
X74839760Y-98078159D01*
X74839762Y-98078156D01*
X74958156Y-97959762D01*
X74958786Y-97959340D01*
X75097374Y-97866739D01*
X75252064Y-97802665D01*
X75416282Y-97770000D01*
X75583718Y-97770000D01*
X75747936Y-97802665D01*
G37*
G36*
X105247936Y-97742665D02*
G01*
X105312010Y-97769205D01*
X105402625Y-97806739D01*
X105402627Y-97806740D01*
X105402626Y-97806740D01*
X105541844Y-97899762D01*
X105660238Y-98018156D01*
X105753260Y-98157374D01*
X105817335Y-98312064D01*
X105850000Y-98476282D01*
X105850000Y-98643718D01*
X105817335Y-98807936D01*
X105753260Y-98962626D01*
X105660238Y-99101844D01*
X105541844Y-99220238D01*
X105402626Y-99313260D01*
X105247936Y-99377335D01*
X105083718Y-99410000D01*
X104916282Y-99410000D01*
X104752064Y-99377335D01*
X104597374Y-99313260D01*
X104458156Y-99220238D01*
X104339762Y-99101844D01*
X104246740Y-98962626D01*
X104246739Y-98962625D01*
X104182665Y-98807935D01*
X104150000Y-98643718D01*
X104150000Y-98476281D01*
X104182665Y-98312064D01*
X104246739Y-98157374D01*
X104339760Y-98018159D01*
X104339762Y-98018156D01*
X104458156Y-97899762D01*
X104507577Y-97866740D01*
X104597374Y-97806739D01*
X104752064Y-97742665D01*
X104916282Y-97710000D01*
X105083718Y-97710000D01*
X105247936Y-97742665D01*
G37*
G36*
X75747936Y-95262665D02*
G01*
X75812010Y-95289205D01*
X75902625Y-95326739D01*
X75902627Y-95326740D01*
X75902626Y-95326740D01*
X76041844Y-95419762D01*
X76160238Y-95538156D01*
X76253260Y-95677374D01*
X76317335Y-95832064D01*
X76350000Y-95996282D01*
X76350000Y-96163718D01*
X76317335Y-96327936D01*
X76253260Y-96482626D01*
X76160238Y-96621844D01*
X76041844Y-96740238D01*
X75902626Y-96833260D01*
X75747936Y-96897335D01*
X75583718Y-96930000D01*
X75416282Y-96930000D01*
X75252064Y-96897335D01*
X75097374Y-96833260D01*
X74958156Y-96740238D01*
X74839762Y-96621844D01*
X74746740Y-96482626D01*
X74746739Y-96482625D01*
X74682665Y-96327935D01*
X74650000Y-96163718D01*
X74650000Y-95996281D01*
X74682665Y-95832064D01*
X74746739Y-95677374D01*
X74839760Y-95538159D01*
X74839762Y-95538156D01*
X74958156Y-95419762D01*
X74958786Y-95419340D01*
X75097374Y-95326739D01*
X75252064Y-95262665D01*
X75416282Y-95230000D01*
X75583718Y-95230000D01*
X75747936Y-95262665D01*
G37*
G36*
X105247936Y-95202665D02*
G01*
X105312010Y-95229205D01*
X105402625Y-95266739D01*
X105402627Y-95266740D01*
X105402626Y-95266740D01*
X105541844Y-95359762D01*
X105660238Y-95478156D01*
X105753260Y-95617374D01*
X105817335Y-95772064D01*
X105850000Y-95936282D01*
X105850000Y-96103718D01*
X105817335Y-96267936D01*
X105753260Y-96422626D01*
X105660238Y-96561844D01*
X105541844Y-96680238D01*
X105402626Y-96773260D01*
X105247936Y-96837335D01*
X105083718Y-96870000D01*
X104916282Y-96870000D01*
X104752064Y-96837335D01*
X104597374Y-96773260D01*
X104458156Y-96680238D01*
X104339762Y-96561844D01*
X104246740Y-96422626D01*
X104246739Y-96422625D01*
X104182665Y-96267935D01*
X104150000Y-96103718D01*
X104150000Y-95936281D01*
X104182665Y-95772064D01*
X104246739Y-95617374D01*
X104339760Y-95478159D01*
X104339762Y-95478156D01*
X104458156Y-95359762D01*
X104507577Y-95326740D01*
X104597374Y-95266739D01*
X104752064Y-95202665D01*
X104916282Y-95170000D01*
X105083718Y-95170000D01*
X105247936Y-95202665D01*
G37*
G36*
X75747936Y-92722665D02*
G01*
X75812010Y-92749205D01*
X75902625Y-92786739D01*
X75902627Y-92786740D01*
X75902626Y-92786740D01*
X76041844Y-92879762D01*
X76160238Y-92998156D01*
X76253260Y-93137374D01*
X76317335Y-93292064D01*
X76350000Y-93456282D01*
X76350000Y-93623718D01*
X76317335Y-93787936D01*
X76253260Y-93942626D01*
X76160238Y-94081844D01*
X76041844Y-94200238D01*
X75902626Y-94293260D01*
X75747936Y-94357335D01*
X75583718Y-94390000D01*
X75416282Y-94390000D01*
X75252064Y-94357335D01*
X75097374Y-94293260D01*
X74958156Y-94200238D01*
X74839762Y-94081844D01*
X74746740Y-93942626D01*
X74746739Y-93942625D01*
X74682665Y-93787935D01*
X74650000Y-93623718D01*
X74650000Y-93456281D01*
X74682665Y-93292064D01*
X74746739Y-93137374D01*
X74839760Y-92998159D01*
X74839762Y-92998156D01*
X74958156Y-92879762D01*
X74958786Y-92879340D01*
X75097374Y-92786739D01*
X75252064Y-92722665D01*
X75416282Y-92690000D01*
X75583718Y-92690000D01*
X75747936Y-92722665D01*
G37*
G36*
X105247936Y-92662665D02*
G01*
X105312010Y-92689205D01*
X105402625Y-92726739D01*
X105402627Y-92726740D01*
X105402626Y-92726740D01*
X105541844Y-92819762D01*
X105660238Y-92938156D01*
X105753260Y-93077374D01*
X105817335Y-93232064D01*
X105850000Y-93396282D01*
X105850000Y-93563718D01*
X105817335Y-93727936D01*
X105753260Y-93882626D01*
X105660238Y-94021844D01*
X105541844Y-94140238D01*
X105402626Y-94233260D01*
X105247936Y-94297335D01*
X105083718Y-94330000D01*
X104916282Y-94330000D01*
X104752064Y-94297335D01*
X104597374Y-94233260D01*
X104458156Y-94140238D01*
X104339762Y-94021844D01*
X104246740Y-93882626D01*
X104246739Y-93882625D01*
X104182665Y-93727935D01*
X104150000Y-93563718D01*
X104150000Y-93396281D01*
X104182665Y-93232064D01*
X104246739Y-93077374D01*
X104339760Y-92938159D01*
X104339762Y-92938156D01*
X104458156Y-92819762D01*
X104507577Y-92786740D01*
X104597374Y-92726739D01*
X104752064Y-92662665D01*
X104916282Y-92630000D01*
X105083718Y-92630000D01*
X105247936Y-92662665D01*
G37*
G36*
X75747936Y-90182665D02*
G01*
X75812010Y-90209205D01*
X75902625Y-90246739D01*
X75902627Y-90246740D01*
X75902626Y-90246740D01*
X76041844Y-90339762D01*
X76160238Y-90458156D01*
X76253260Y-90597374D01*
X76317335Y-90752064D01*
X76350000Y-90916282D01*
X76350000Y-91083718D01*
X76317335Y-91247936D01*
X76253260Y-91402626D01*
X76160238Y-91541844D01*
X76041844Y-91660238D01*
X75902626Y-91753260D01*
X75747936Y-91817335D01*
X75583718Y-91850000D01*
X75416282Y-91850000D01*
X75252064Y-91817335D01*
X75097374Y-91753260D01*
X74958156Y-91660238D01*
X74839762Y-91541844D01*
X74746740Y-91402626D01*
X74746739Y-91402625D01*
X74682665Y-91247935D01*
X74650000Y-91083718D01*
X74650000Y-90916281D01*
X74682665Y-90752064D01*
X74746739Y-90597374D01*
X74839760Y-90458159D01*
X74839762Y-90458156D01*
X74958156Y-90339762D01*
X74958786Y-90339340D01*
X75097374Y-90246739D01*
X75252064Y-90182665D01*
X75416282Y-90150000D01*
X75583718Y-90150000D01*
X75747936Y-90182665D01*
G37*
G36*
X105247936Y-90122665D02*
G01*
X105312010Y-90149205D01*
X105402625Y-90186739D01*
X105402627Y-90186740D01*
X105402626Y-90186740D01*
X105541844Y-90279762D01*
X105660238Y-90398156D01*
X105753260Y-90537374D01*
X105817335Y-90692064D01*
X105850000Y-90856282D01*
X105850000Y-91023718D01*
X105817335Y-91187936D01*
X105753260Y-91342626D01*
X105660238Y-91481844D01*
X105541844Y-91600238D01*
X105402626Y-91693260D01*
X105247936Y-91757335D01*
X105083718Y-91790000D01*
X104916282Y-91790000D01*
X104752064Y-91757335D01*
X104597374Y-91693260D01*
X104458156Y-91600238D01*
X104339762Y-91481844D01*
X104246740Y-91342626D01*
X104246739Y-91342625D01*
X104182665Y-91187935D01*
X104150000Y-91023718D01*
X104150000Y-90856281D01*
X104182665Y-90692064D01*
X104246739Y-90537374D01*
X104339760Y-90398159D01*
X104339762Y-90398156D01*
X104458156Y-90279762D01*
X104507577Y-90246740D01*
X104597374Y-90186739D01*
X104752064Y-90122665D01*
X104916282Y-90090000D01*
X105083718Y-90090000D01*
X105247936Y-90122665D01*
G37*
G36*
X75747936Y-87642665D02*
G01*
X75812010Y-87669205D01*
X75902625Y-87706739D01*
X75902627Y-87706740D01*
X75902626Y-87706740D01*
X76041844Y-87799762D01*
X76160238Y-87918156D01*
X76253260Y-88057374D01*
X76317335Y-88212064D01*
X76350000Y-88376282D01*
X76350000Y-88543718D01*
X76317335Y-88707936D01*
X76253260Y-88862626D01*
X76160238Y-89001844D01*
X76041844Y-89120238D01*
X75902626Y-89213260D01*
X75747936Y-89277335D01*
X75583718Y-89310000D01*
X75416282Y-89310000D01*
X75252064Y-89277335D01*
X75097374Y-89213260D01*
X74958156Y-89120238D01*
X74839762Y-89001844D01*
X74746740Y-88862626D01*
X74746739Y-88862625D01*
X74682665Y-88707935D01*
X74650000Y-88543718D01*
X74650000Y-88376281D01*
X74682665Y-88212064D01*
X74746739Y-88057374D01*
X74839760Y-87918159D01*
X74839762Y-87918156D01*
X74958156Y-87799762D01*
X74958786Y-87799340D01*
X75097374Y-87706739D01*
X75252064Y-87642665D01*
X75416282Y-87610000D01*
X75583718Y-87610000D01*
X75747936Y-87642665D01*
G37*
G36*
X105247936Y-87582665D02*
G01*
X105312010Y-87609205D01*
X105402625Y-87646739D01*
X105402627Y-87646740D01*
X105402626Y-87646740D01*
X105541844Y-87739762D01*
X105660238Y-87858156D01*
X105753260Y-87997374D01*
X105817335Y-88152064D01*
X105850000Y-88316282D01*
X105850000Y-88483718D01*
X105817335Y-88647936D01*
X105753260Y-88802626D01*
X105660238Y-88941844D01*
X105541844Y-89060238D01*
X105402626Y-89153260D01*
X105247936Y-89217335D01*
X105083718Y-89250000D01*
X104916282Y-89250000D01*
X104752064Y-89217335D01*
X104597374Y-89153260D01*
X104458156Y-89060238D01*
X104339762Y-88941844D01*
X104246740Y-88802626D01*
X104246739Y-88802625D01*
X104182665Y-88647935D01*
X104150000Y-88483718D01*
X104150000Y-88316281D01*
X104182665Y-88152064D01*
X104246739Y-87997374D01*
X104339760Y-87858159D01*
X104339762Y-87858156D01*
X104458156Y-87739762D01*
X104507577Y-87706740D01*
X104597374Y-87646739D01*
X104752064Y-87582665D01*
X104916282Y-87550000D01*
X105083718Y-87550000D01*
X105247936Y-87582665D01*
G37*
G36*
X75747936Y-85102665D02*
G01*
X75812010Y-85129205D01*
X75902625Y-85166739D01*
X75902627Y-85166740D01*
X75902626Y-85166740D01*
X76041844Y-85259762D01*
X76160238Y-85378156D01*
X76253260Y-85517374D01*
X76317335Y-85672064D01*
X76350000Y-85836282D01*
X76350000Y-86003718D01*
X76317335Y-86167936D01*
X76253260Y-86322626D01*
X76160238Y-86461844D01*
X76041844Y-86580238D01*
X75902626Y-86673260D01*
X75747936Y-86737335D01*
X75583718Y-86770000D01*
X75416282Y-86770000D01*
X75252064Y-86737335D01*
X75097374Y-86673260D01*
X74958156Y-86580238D01*
X74839762Y-86461844D01*
X74746740Y-86322626D01*
X74746739Y-86322625D01*
X74682665Y-86167935D01*
X74650000Y-86003718D01*
X74650000Y-85836281D01*
X74682665Y-85672064D01*
X74746739Y-85517374D01*
X74839760Y-85378159D01*
X74839762Y-85378156D01*
X74958156Y-85259762D01*
X74958786Y-85259340D01*
X75097374Y-85166739D01*
X75252064Y-85102665D01*
X75416282Y-85070000D01*
X75583718Y-85070000D01*
X75747936Y-85102665D01*
G37*
G36*
X105247936Y-85042665D02*
G01*
X105312010Y-85069205D01*
X105402625Y-85106739D01*
X105402627Y-85106740D01*
X105402626Y-85106740D01*
X105541844Y-85199762D01*
X105660238Y-85318156D01*
X105753260Y-85457374D01*
X105817335Y-85612064D01*
X105850000Y-85776282D01*
X105850000Y-85943718D01*
X105817335Y-86107936D01*
X105753260Y-86262626D01*
X105660238Y-86401844D01*
X105541844Y-86520238D01*
X105402626Y-86613260D01*
X105247936Y-86677335D01*
X105083718Y-86710000D01*
X104916282Y-86710000D01*
X104752064Y-86677335D01*
X104597374Y-86613260D01*
X104458156Y-86520238D01*
X104339762Y-86401844D01*
X104246740Y-86262626D01*
X104246739Y-86262625D01*
X104182665Y-86107935D01*
X104150000Y-85943718D01*
X104150000Y-85776281D01*
X104182665Y-85612064D01*
X104246739Y-85457374D01*
X104339760Y-85318159D01*
X104339762Y-85318156D01*
X104458156Y-85199762D01*
X104507577Y-85166740D01*
X104597374Y-85106739D01*
X104752064Y-85042665D01*
X104916282Y-85010000D01*
X105083718Y-85010000D01*
X105247936Y-85042665D01*
G37*
G36*
X75747936Y-82562665D02*
G01*
X75812010Y-82589205D01*
X75902625Y-82626739D01*
X75902627Y-82626740D01*
X75902626Y-82626740D01*
X76041844Y-82719762D01*
X76160238Y-82838156D01*
X76253260Y-82977374D01*
X76317335Y-83132064D01*
X76350000Y-83296282D01*
X76350000Y-83463718D01*
X76317335Y-83627936D01*
X76253260Y-83782626D01*
X76160238Y-83921844D01*
X76041844Y-84040238D01*
X75902626Y-84133260D01*
X75747936Y-84197335D01*
X75583718Y-84230000D01*
X75416282Y-84230000D01*
X75252064Y-84197335D01*
X75097374Y-84133260D01*
X74958156Y-84040238D01*
X74839762Y-83921844D01*
X74746740Y-83782626D01*
X74746739Y-83782625D01*
X74682665Y-83627935D01*
X74650000Y-83463718D01*
X74650000Y-83296281D01*
X74682665Y-83132064D01*
X74746739Y-82977374D01*
X74839760Y-82838159D01*
X74839762Y-82838156D01*
X74958156Y-82719762D01*
X74958786Y-82719340D01*
X75097374Y-82626739D01*
X75252064Y-82562665D01*
X75416282Y-82530000D01*
X75583718Y-82530000D01*
X75747936Y-82562665D01*
G37*
G36*
X105247936Y-82502665D02*
G01*
X105312010Y-82529205D01*
X105402625Y-82566739D01*
X105402627Y-82566740D01*
X105402626Y-82566740D01*
X105541844Y-82659762D01*
X105660238Y-82778156D01*
X105753260Y-82917374D01*
X105817335Y-83072064D01*
X105850000Y-83236282D01*
X105850000Y-83403718D01*
X105817335Y-83567936D01*
X105753260Y-83722626D01*
X105660238Y-83861844D01*
X105541844Y-83980238D01*
X105402626Y-84073260D01*
X105247936Y-84137335D01*
X105083718Y-84170000D01*
X104916282Y-84170000D01*
X104752064Y-84137335D01*
X104597374Y-84073260D01*
X104458156Y-83980238D01*
X104339762Y-83861844D01*
X104246740Y-83722626D01*
X104246739Y-83722625D01*
X104182665Y-83567935D01*
X104150000Y-83403718D01*
X104150000Y-83236281D01*
X104182665Y-83072064D01*
X104246739Y-82917374D01*
X104339760Y-82778159D01*
X104339762Y-82778156D01*
X104458156Y-82659762D01*
X104507577Y-82626740D01*
X104597374Y-82566739D01*
X104752064Y-82502665D01*
X104916282Y-82470000D01*
X105083718Y-82470000D01*
X105247936Y-82502665D01*
G37*
G36*
X76047936Y-74102665D02*
G01*
X76112010Y-74129205D01*
X76202625Y-74166739D01*
X76202627Y-74166740D01*
X76202626Y-74166740D01*
X76341844Y-74259762D01*
X76460238Y-74378156D01*
X76553260Y-74517374D01*
X76617335Y-74672064D01*
X76650000Y-74836282D01*
X76650000Y-75003718D01*
X76617335Y-75167936D01*
X76553260Y-75322626D01*
X76460238Y-75461844D01*
X76341844Y-75580238D01*
X76202626Y-75673260D01*
X76047936Y-75737335D01*
X75883718Y-75770000D01*
X75716282Y-75770000D01*
X75552064Y-75737335D01*
X75397374Y-75673260D01*
X75258156Y-75580238D01*
X75139762Y-75461844D01*
X75046740Y-75322626D01*
X75046739Y-75322625D01*
X74982665Y-75167935D01*
X74950000Y-75003718D01*
X74950000Y-74836281D01*
X74982665Y-74672064D01*
X75046739Y-74517374D01*
X75139760Y-74378159D01*
X75139762Y-74378156D01*
X75258156Y-74259762D01*
X75258786Y-74259340D01*
X75397374Y-74166739D01*
X75552064Y-74102665D01*
X75716282Y-74070000D01*
X75883718Y-74070000D01*
X76047936Y-74102665D01*
G37*
G36*
X76047936Y-71562665D02*
G01*
X76112010Y-71589205D01*
X76202625Y-71626739D01*
X76202627Y-71626740D01*
X76202626Y-71626740D01*
X76341844Y-71719762D01*
X76460238Y-71838156D01*
X76553260Y-71977374D01*
X76617335Y-72132064D01*
X76650000Y-72296282D01*
X76650000Y-72463718D01*
X76617335Y-72627936D01*
X76553260Y-72782626D01*
X76460238Y-72921844D01*
X76341844Y-73040238D01*
X76202626Y-73133260D01*
X76047936Y-73197335D01*
X75883718Y-73230000D01*
X75716282Y-73230000D01*
X75552064Y-73197335D01*
X75397374Y-73133260D01*
X75258156Y-73040238D01*
X75139762Y-72921844D01*
X75046740Y-72782626D01*
X75046739Y-72782625D01*
X74982665Y-72627935D01*
X74950000Y-72463718D01*
X74950000Y-72296281D01*
X74982665Y-72132064D01*
X75046739Y-71977374D01*
X75139760Y-71838159D01*
X75139762Y-71838156D01*
X75258156Y-71719762D01*
X75258786Y-71719340D01*
X75397374Y-71626739D01*
X75552064Y-71562665D01*
X75716282Y-71530000D01*
X75883718Y-71530000D01*
X76047936Y-71562665D01*
G37*
G36*
X76047936Y-69022665D02*
G01*
X76112010Y-69049205D01*
X76202625Y-69086739D01*
X76202627Y-69086740D01*
X76202626Y-69086740D01*
X76341844Y-69179762D01*
X76460238Y-69298156D01*
X76553260Y-69437374D01*
X76617335Y-69592064D01*
X76650000Y-69756282D01*
X76650000Y-69923718D01*
X76617335Y-70087936D01*
X76553260Y-70242626D01*
X76460238Y-70381844D01*
X76341844Y-70500238D01*
X76202626Y-70593260D01*
X76047936Y-70657335D01*
X75883718Y-70690000D01*
X75716282Y-70690000D01*
X75552064Y-70657335D01*
X75397374Y-70593260D01*
X75258156Y-70500238D01*
X75139762Y-70381844D01*
X75046740Y-70242626D01*
X75046739Y-70242625D01*
X74982665Y-70087935D01*
X74950000Y-69923718D01*
X74950000Y-69756281D01*
X74982665Y-69592064D01*
X75046739Y-69437374D01*
X75139760Y-69298159D01*
X75139762Y-69298156D01*
X75258156Y-69179762D01*
X75258786Y-69179340D01*
X75397374Y-69086739D01*
X75552064Y-69022665D01*
X75716282Y-68990000D01*
X75883718Y-68990000D01*
X76047936Y-69022665D01*
G37*
G36*
X76650000Y-68150000D02*
G01*
X76649996Y-68150000D01*
X74950004Y-68150000D01*
X74950000Y-68150000D01*
X74950000Y-66450000D01*
X76650000Y-66450000D01*
X76650000Y-68150000D01*
G37*
G36*
X88729810Y-65425546D02*
G01*
X88729811Y-65425546D01*
X88729813Y-65425547D01*
X88898152Y-65495275D01*
X89049653Y-65596505D01*
X89178495Y-65725347D01*
X89279725Y-65876848D01*
X89349453Y-66045187D01*
X89385000Y-66223895D01*
X89385000Y-66406105D01*
X89349453Y-66584813D01*
X89279725Y-66753152D01*
X89178495Y-66904653D01*
X89049653Y-67033495D01*
X88898152Y-67134725D01*
X88729813Y-67204453D01*
X88595782Y-67231113D01*
X88551106Y-67240000D01*
X88551105Y-67240000D01*
X88368895Y-67240000D01*
X88368894Y-67240000D01*
X88309325Y-67228151D01*
X88190187Y-67204453D01*
X88021848Y-67134725D01*
X87870347Y-67033495D01*
X87741505Y-66904653D01*
X87640275Y-66753152D01*
X87570547Y-66584813D01*
X87535000Y-66406105D01*
X87535000Y-66223895D01*
X87535000Y-66223894D01*
X87570546Y-66045189D01*
X87640276Y-65876846D01*
X87741503Y-65725349D01*
X87870349Y-65596503D01*
X88021846Y-65495276D01*
X88190189Y-65425546D01*
X88368894Y-65390000D01*
X88551106Y-65390000D01*
X88729810Y-65425546D01*
G37*
G36*
X93579810Y-65425546D02*
G01*
X93579811Y-65425546D01*
X93579813Y-65425547D01*
X93748152Y-65495275D01*
X93899653Y-65596505D01*
X94028495Y-65725347D01*
X94129725Y-65876848D01*
X94199453Y-66045187D01*
X94235000Y-66223895D01*
X94235000Y-66406105D01*
X94199453Y-66584813D01*
X94129725Y-66753152D01*
X94028495Y-66904653D01*
X93899653Y-67033495D01*
X93748152Y-67134725D01*
X93579813Y-67204453D01*
X93445782Y-67231113D01*
X93401106Y-67240000D01*
X93401105Y-67240000D01*
X93218895Y-67240000D01*
X93218894Y-67240000D01*
X93159325Y-67228151D01*
X93040187Y-67204453D01*
X92871848Y-67134725D01*
X92720347Y-67033495D01*
X92591505Y-66904653D01*
X92490275Y-66753152D01*
X92420547Y-66584813D01*
X92385000Y-66406105D01*
X92385000Y-66223895D01*
X92385000Y-66223894D01*
X92420546Y-66045189D01*
X92490276Y-65876846D01*
X92591503Y-65725349D01*
X92720349Y-65596503D01*
X92871846Y-65495276D01*
X93040189Y-65425546D01*
X93218894Y-65390000D01*
X93401106Y-65390000D01*
X93579810Y-65425546D01*
G37*
G36*
X88417584Y-62212085D02*
G01*
X88582248Y-62265588D01*
X88582250Y-62265589D01*
X88582253Y-62265590D01*
X88659389Y-62304893D01*
X88736530Y-62344198D01*
X88876597Y-62445962D01*
X88999037Y-62568402D01*
X89100801Y-62708469D01*
X89100804Y-62708475D01*
X89179410Y-62862747D01*
X89232914Y-63027416D01*
X89260000Y-63198428D01*
X89260000Y-63371572D01*
X89232914Y-63542584D01*
X89179410Y-63707253D01*
X89100804Y-63861525D01*
X89100801Y-63861530D01*
X88999037Y-64001597D01*
X88999033Y-64001602D01*
X88876602Y-64124033D01*
X88876598Y-64124035D01*
X88876597Y-64124037D01*
X88736530Y-64225801D01*
X88736527Y-64225802D01*
X88736525Y-64225804D01*
X88582253Y-64304410D01*
X88417584Y-64357914D01*
X88246574Y-64385000D01*
X88246572Y-64385000D01*
X88073428Y-64385000D01*
X88073426Y-64385000D01*
X87902415Y-64357914D01*
X87816755Y-64330081D01*
X87737747Y-64304410D01*
X87583475Y-64225804D01*
X87583469Y-64225801D01*
X87443402Y-64124037D01*
X87320962Y-64001597D01*
X87219198Y-63861530D01*
X87179893Y-63784389D01*
X87140590Y-63707253D01*
X87140588Y-63707248D01*
X87087085Y-63542584D01*
X87060000Y-63371573D01*
X87060000Y-63198426D01*
X87087085Y-63027415D01*
X87140588Y-62862751D01*
X87219198Y-62708469D01*
X87320962Y-62568402D01*
X87443402Y-62445962D01*
X87583469Y-62344198D01*
X87737751Y-62265588D01*
X87902415Y-62212085D01*
X88073426Y-62185000D01*
X88246574Y-62185000D01*
X88417584Y-62212085D01*
G37*
G36*
X93867584Y-62212085D02*
G01*
X94032248Y-62265588D01*
X94032250Y-62265589D01*
X94032253Y-62265590D01*
X94109389Y-62304893D01*
X94186530Y-62344198D01*
X94326597Y-62445962D01*
X94449037Y-62568402D01*
X94550801Y-62708469D01*
X94550804Y-62708475D01*
X94629410Y-62862747D01*
X94682914Y-63027416D01*
X94710000Y-63198428D01*
X94710000Y-63371572D01*
X94682914Y-63542584D01*
X94629410Y-63707253D01*
X94550804Y-63861525D01*
X94550801Y-63861530D01*
X94449037Y-64001597D01*
X94449033Y-64001602D01*
X94326602Y-64124033D01*
X94326598Y-64124035D01*
X94326597Y-64124037D01*
X94186530Y-64225801D01*
X94186527Y-64225802D01*
X94186525Y-64225804D01*
X94032253Y-64304410D01*
X93867584Y-64357914D01*
X93696574Y-64385000D01*
X93696572Y-64385000D01*
X93523428Y-64385000D01*
X93523426Y-64385000D01*
X93352415Y-64357914D01*
X93266755Y-64330081D01*
X93187747Y-64304410D01*
X93033475Y-64225804D01*
X93033469Y-64225801D01*
X92893402Y-64124037D01*
X92770962Y-64001597D01*
X92669198Y-63861530D01*
X92629893Y-63784389D01*
X92590590Y-63707253D01*
X92590588Y-63707248D01*
X92537085Y-63542584D01*
X92510000Y-63371573D01*
X92510000Y-63198426D01*
X92537085Y-63027415D01*
X92590588Y-62862751D01*
X92669198Y-62708469D01*
X92770962Y-62568402D01*
X92893402Y-62445962D01*
X93033469Y-62344198D01*
X93187751Y-62265588D01*
X93352415Y-62212085D01*
X93523426Y-62185000D01*
X93696574Y-62185000D01*
X93867584Y-62212085D01*
G37*
G36*
X75947936Y-61102665D02*
G01*
X76012010Y-61129205D01*
X76102625Y-61166739D01*
X76102627Y-61166740D01*
X76102626Y-61166740D01*
X76241844Y-61259762D01*
X76360238Y-61378156D01*
X76453260Y-61517374D01*
X76517335Y-61672064D01*
X76550000Y-61836282D01*
X76550000Y-62003718D01*
X76517335Y-62167936D01*
X76453260Y-62322626D01*
X76360238Y-62461844D01*
X76241844Y-62580238D01*
X76102626Y-62673260D01*
X75947936Y-62737335D01*
X75783718Y-62770000D01*
X75616282Y-62770000D01*
X75452064Y-62737335D01*
X75297374Y-62673260D01*
X75158156Y-62580238D01*
X75039762Y-62461844D01*
X74961154Y-62344198D01*
X74946739Y-62322625D01*
X74882665Y-62167935D01*
X74850000Y-62003718D01*
X74850000Y-61836281D01*
X74882665Y-61672064D01*
X74946739Y-61517374D01*
X75039760Y-61378159D01*
X75039762Y-61378156D01*
X75158156Y-61259762D01*
X75158786Y-61259340D01*
X75297374Y-61166739D01*
X75452064Y-61102665D01*
X75616282Y-61070000D01*
X75783718Y-61070000D01*
X75947936Y-61102665D01*
G37*
G36*
X75947936Y-58562665D02*
G01*
X76012010Y-58589205D01*
X76102625Y-58626739D01*
X76102627Y-58626740D01*
X76102626Y-58626740D01*
X76241844Y-58719762D01*
X76360238Y-58838156D01*
X76453260Y-58977374D01*
X76517335Y-59132064D01*
X76550000Y-59296282D01*
X76550000Y-59463718D01*
X76517335Y-59627936D01*
X76453260Y-59782626D01*
X76360238Y-59921844D01*
X76241844Y-60040238D01*
X76102626Y-60133260D01*
X75947936Y-60197335D01*
X75783718Y-60230000D01*
X75616282Y-60230000D01*
X75452064Y-60197335D01*
X75297374Y-60133260D01*
X75158156Y-60040238D01*
X75039762Y-59921844D01*
X74946740Y-59782626D01*
X74946739Y-59782625D01*
X74882665Y-59627935D01*
X74850000Y-59463718D01*
X74850000Y-59296281D01*
X74882665Y-59132064D01*
X74946739Y-58977374D01*
X75039760Y-58838159D01*
X75039762Y-58838156D01*
X75158156Y-58719762D01*
X75158786Y-58719340D01*
X75297374Y-58626739D01*
X75452064Y-58562665D01*
X75616282Y-58530000D01*
X75783718Y-58530000D01*
X75947936Y-58562665D01*
G37*
G36*
X79978829Y-57058552D02*
G01*
X80041843Y-57100656D01*
X80083947Y-57163670D01*
X80083947Y-57163671D01*
X80095000Y-57219238D01*
X80095000Y-58780762D01*
X80083947Y-58836329D01*
X80041843Y-58899343D01*
X79978829Y-58941447D01*
X79923262Y-58952500D01*
X78996738Y-58952500D01*
X78968062Y-58946796D01*
X78941170Y-58941447D01*
X78878156Y-58899343D01*
X78836052Y-58836329D01*
X78825000Y-58780764D01*
X78825000Y-57219234D01*
X78836052Y-57163670D01*
X78878156Y-57100656D01*
X78941170Y-57058552D01*
X78996735Y-57047500D01*
X79923265Y-57047500D01*
X79978829Y-57058552D01*
G37*
G36*
X82518829Y-57058552D02*
G01*
X82581843Y-57100656D01*
X82623947Y-57163670D01*
X82623947Y-57163671D01*
X82635000Y-57219238D01*
X82635000Y-58780762D01*
X82623947Y-58836329D01*
X82581843Y-58899343D01*
X82518829Y-58941447D01*
X82463262Y-58952500D01*
X81536738Y-58952500D01*
X81508062Y-58946796D01*
X81481170Y-58941447D01*
X81418156Y-58899343D01*
X81376052Y-58836329D01*
X81365000Y-58780764D01*
X81365000Y-57219234D01*
X81376052Y-57163670D01*
X81418156Y-57100656D01*
X81481170Y-57058552D01*
X81536735Y-57047500D01*
X82463265Y-57047500D01*
X82518829Y-57058552D01*
G37*
G36*
X85058829Y-57058552D02*
G01*
X85121843Y-57100656D01*
X85163947Y-57163670D01*
X85163947Y-57163671D01*
X85175000Y-57219238D01*
X85175000Y-58780762D01*
X85163947Y-58836329D01*
X85121843Y-58899343D01*
X85058829Y-58941447D01*
X85003262Y-58952500D01*
X84076738Y-58952500D01*
X84048062Y-58946796D01*
X84021170Y-58941447D01*
X83958156Y-58899343D01*
X83916052Y-58836329D01*
X83905000Y-58780764D01*
X83905000Y-57219234D01*
X83916052Y-57163670D01*
X83958156Y-57100656D01*
X84021170Y-57058552D01*
X84076735Y-57047500D01*
X85003265Y-57047500D01*
X85058829Y-57058552D01*
G37*
G36*
X87598829Y-57058552D02*
G01*
X87661843Y-57100656D01*
X87703947Y-57163670D01*
X87703947Y-57163671D01*
X87715000Y-57219238D01*
X87715000Y-58780762D01*
X87703947Y-58836329D01*
X87661843Y-58899343D01*
X87598829Y-58941447D01*
X87543262Y-58952500D01*
X86616738Y-58952500D01*
X86588062Y-58946796D01*
X86561170Y-58941447D01*
X86498156Y-58899343D01*
X86456052Y-58836329D01*
X86445000Y-58780764D01*
X86445000Y-57219234D01*
X86456052Y-57163670D01*
X86498156Y-57100656D01*
X86561170Y-57058552D01*
X86616735Y-57047500D01*
X87543265Y-57047500D01*
X87598829Y-57058552D01*
G37*
G36*
X90138829Y-57058552D02*
G01*
X90201843Y-57100656D01*
X90243947Y-57163670D01*
X90243947Y-57163671D01*
X90255000Y-57219238D01*
X90255000Y-58780762D01*
X90243947Y-58836329D01*
X90201843Y-58899343D01*
X90138829Y-58941447D01*
X90083262Y-58952500D01*
X89156738Y-58952500D01*
X89128062Y-58946796D01*
X89101170Y-58941447D01*
X89038156Y-58899343D01*
X88996052Y-58836329D01*
X88985000Y-58780764D01*
X88985000Y-57219234D01*
X88996052Y-57163670D01*
X89038156Y-57100656D01*
X89101170Y-57058552D01*
X89156735Y-57047500D01*
X90083265Y-57047500D01*
X90138829Y-57058552D01*
G37*
G36*
X92678829Y-57058552D02*
G01*
X92741843Y-57100656D01*
X92783947Y-57163670D01*
X92783947Y-57163671D01*
X92795000Y-57219238D01*
X92795000Y-58780762D01*
X92783947Y-58836329D01*
X92741843Y-58899343D01*
X92678829Y-58941447D01*
X92623262Y-58952500D01*
X91696738Y-58952500D01*
X91668062Y-58946796D01*
X91641170Y-58941447D01*
X91578156Y-58899343D01*
X91536052Y-58836329D01*
X91525000Y-58780764D01*
X91525000Y-57219234D01*
X91536052Y-57163670D01*
X91578156Y-57100656D01*
X91641170Y-57058552D01*
X91696735Y-57047500D01*
X92623265Y-57047500D01*
X92678829Y-57058552D01*
G37*
G36*
X95218829Y-57058552D02*
G01*
X95281843Y-57100656D01*
X95323947Y-57163670D01*
X95323947Y-57163671D01*
X95335000Y-57219238D01*
X95335000Y-58780762D01*
X95323947Y-58836329D01*
X95281843Y-58899343D01*
X95218829Y-58941447D01*
X95163262Y-58952500D01*
X94236738Y-58952500D01*
X94208062Y-58946796D01*
X94181170Y-58941447D01*
X94118156Y-58899343D01*
X94076052Y-58836329D01*
X94065000Y-58780764D01*
X94065000Y-57219234D01*
X94076052Y-57163670D01*
X94118156Y-57100656D01*
X94181170Y-57058552D01*
X94236735Y-57047500D01*
X95163265Y-57047500D01*
X95218829Y-57058552D01*
G37*
G36*
X100298829Y-57058552D02*
G01*
X100361843Y-57100656D01*
X100403947Y-57163670D01*
X100403947Y-57163671D01*
X100415000Y-57219238D01*
X100415000Y-58780762D01*
X100403947Y-58836329D01*
X100361843Y-58899343D01*
X100298829Y-58941447D01*
X100243262Y-58952500D01*
X99316738Y-58952500D01*
X99288062Y-58946796D01*
X99261170Y-58941447D01*
X99198156Y-58899343D01*
X99156052Y-58836329D01*
X99145000Y-58780764D01*
X99145000Y-57219234D01*
X99156052Y-57163670D01*
X99198156Y-57100656D01*
X99261170Y-57058552D01*
X99316735Y-57047500D01*
X100243265Y-57047500D01*
X100298829Y-57058552D01*
G37*
G36*
X102838829Y-57058552D02*
G01*
X102901843Y-57100656D01*
X102943947Y-57163670D01*
X102943947Y-57163671D01*
X102955000Y-57219238D01*
X102955000Y-58780762D01*
X102943947Y-58836329D01*
X102901843Y-58899343D01*
X102838829Y-58941447D01*
X102783262Y-58952500D01*
X101856738Y-58952500D01*
X101828062Y-58946796D01*
X101801170Y-58941447D01*
X101738156Y-58899343D01*
X101696052Y-58836329D01*
X101685000Y-58780764D01*
X101685000Y-57219234D01*
X101696052Y-57163670D01*
X101738156Y-57100656D01*
X101801170Y-57058552D01*
X101856735Y-57047500D01*
X102783265Y-57047500D01*
X102838829Y-57058552D01*
G37*
G36*
X97791342Y-57052849D02*
G01*
X97854356Y-57094953D01*
X97896460Y-57157967D01*
X97900110Y-57176321D01*
X97907513Y-57213535D01*
X97907513Y-58775059D01*
X97896460Y-58830626D01*
X97854356Y-58893640D01*
X97791342Y-58935744D01*
X97735775Y-58946797D01*
X96809251Y-58946797D01*
X96781090Y-58941195D01*
X96753683Y-58935744D01*
X96690669Y-58893640D01*
X96648565Y-58830626D01*
X96637513Y-58775061D01*
X96637513Y-57213531D01*
X96648565Y-57157967D01*
X96690669Y-57094953D01*
X96753683Y-57052849D01*
X96809248Y-57041797D01*
X97735778Y-57041797D01*
X97791342Y-57052849D01*
G37*
G36*
X75947936Y-56022665D02*
G01*
X76012010Y-56049205D01*
X76102625Y-56086739D01*
X76102627Y-56086740D01*
X76102626Y-56086740D01*
X76241844Y-56179762D01*
X76360238Y-56298156D01*
X76453260Y-56437374D01*
X76517335Y-56592064D01*
X76550000Y-56756282D01*
X76550000Y-56923718D01*
X76517335Y-57087936D01*
X76453260Y-57242626D01*
X76360238Y-57381844D01*
X76241844Y-57500238D01*
X76102626Y-57593260D01*
X75947936Y-57657335D01*
X75783718Y-57690000D01*
X75616282Y-57690000D01*
X75452064Y-57657335D01*
X75297374Y-57593260D01*
X75158156Y-57500238D01*
X75039762Y-57381844D01*
X74946740Y-57242626D01*
X74946739Y-57242625D01*
X74909205Y-57152010D01*
X74882665Y-57087936D01*
X74850000Y-56923718D01*
X74850000Y-56756282D01*
X74882665Y-56592064D01*
X74946739Y-56437374D01*
X75039760Y-56298159D01*
X75039762Y-56298156D01*
X75158156Y-56179762D01*
X75158786Y-56179340D01*
X75297374Y-56086739D01*
X75452064Y-56022665D01*
X75616282Y-55990000D01*
X75783718Y-55990000D01*
X75947936Y-56022665D01*
G37*
G36*
X76550000Y-55150000D02*
G01*
X76549996Y-55150000D01*
X74850004Y-55150000D01*
X74850000Y-55150000D01*
X74850000Y-53450000D01*
X76550000Y-53450000D01*
X76550000Y-55150000D01*
G37*
G36*
X101173000Y-54862000D02*
G01*
X99573000Y-54862000D01*
X99573000Y-53262000D01*
X101173000Y-53262000D01*
X101173000Y-54862000D01*
G37*
G36*
X82377000Y-54735000D02*
G01*
X80777000Y-54735000D01*
X80777000Y-53135000D01*
X82377000Y-53135000D01*
X82377000Y-54735000D01*
G37*
G36*
X101173000Y-52322000D02*
G01*
X99573000Y-52322000D01*
X99573000Y-50722000D01*
X101173000Y-50722000D01*
X101173000Y-52322000D01*
G37*
G36*
X82377000Y-52195000D02*
G01*
X80777000Y-52195000D01*
X80777000Y-50595000D01*
X82377000Y-50595000D01*
X82377000Y-52195000D01*
G37*
G36*
X76210000Y-49420000D02*
G01*
X76209996Y-49420000D01*
X74510004Y-49420000D01*
X74510000Y-49420000D01*
X74510000Y-47720000D01*
X76210000Y-47720000D01*
X76210000Y-49420000D01*
G37*
G36*
X78147936Y-47752665D02*
G01*
X78212010Y-47779205D01*
X78302625Y-47816739D01*
X78302627Y-47816740D01*
X78302626Y-47816740D01*
X78441844Y-47909762D01*
X78560238Y-48028156D01*
X78653260Y-48167374D01*
X78717335Y-48322064D01*
X78750000Y-48486282D01*
X78750000Y-48653718D01*
X78717335Y-48817936D01*
X78653260Y-48972626D01*
X78560238Y-49111844D01*
X78441844Y-49230238D01*
X78302626Y-49323260D01*
X78147936Y-49387335D01*
X77983718Y-49420000D01*
X77816282Y-49420000D01*
X77652064Y-49387335D01*
X77497374Y-49323260D01*
X77358156Y-49230238D01*
X77239762Y-49111844D01*
X77146740Y-48972626D01*
X77146739Y-48972625D01*
X77082665Y-48817935D01*
X77050000Y-48653718D01*
X77050000Y-48486281D01*
X77082665Y-48322064D01*
X77146739Y-48167374D01*
X77239760Y-48028159D01*
X77239762Y-48028156D01*
X77358156Y-47909762D01*
X77358786Y-47909340D01*
X77497374Y-47816739D01*
X77652064Y-47752665D01*
X77816282Y-47720000D01*
X77983718Y-47720000D01*
X78147936Y-47752665D01*
G37*
G36*
X75607936Y-45212665D02*
G01*
X75672010Y-45239205D01*
X75762625Y-45276739D01*
X75762627Y-45276740D01*
X75762626Y-45276740D01*
X75901844Y-45369762D01*
X76020238Y-45488156D01*
X76113260Y-45627374D01*
X76177335Y-45782064D01*
X76210000Y-45946282D01*
X76210000Y-46113718D01*
X76177335Y-46277936D01*
X76113260Y-46432626D01*
X76020238Y-46571844D01*
X75901844Y-46690238D01*
X75762626Y-46783260D01*
X75607936Y-46847335D01*
X75443718Y-46880000D01*
X75276282Y-46880000D01*
X75112064Y-46847335D01*
X74957374Y-46783260D01*
X74818156Y-46690238D01*
X74699762Y-46571844D01*
X74606740Y-46432626D01*
X74606739Y-46432625D01*
X74552607Y-46301937D01*
X74542665Y-46277936D01*
X74510000Y-46113718D01*
X74510000Y-45946282D01*
X74542665Y-45782064D01*
X74567359Y-45722447D01*
X74606739Y-45627374D01*
X74699760Y-45488159D01*
X74699762Y-45488156D01*
X74818156Y-45369762D01*
X74818786Y-45369340D01*
X74957374Y-45276739D01*
X75112064Y-45212665D01*
X75276282Y-45180000D01*
X75443718Y-45180000D01*
X75607936Y-45212665D01*
G37*
G36*
X78147936Y-45212665D02*
G01*
X78212010Y-45239205D01*
X78302625Y-45276739D01*
X78302627Y-45276740D01*
X78302626Y-45276740D01*
X78441844Y-45369762D01*
X78560238Y-45488156D01*
X78653260Y-45627374D01*
X78717335Y-45782064D01*
X78750000Y-45946282D01*
X78750000Y-46113718D01*
X78717335Y-46277936D01*
X78653260Y-46432626D01*
X78560238Y-46571844D01*
X78441844Y-46690238D01*
X78302626Y-46783260D01*
X78147936Y-46847335D01*
X77983718Y-46880000D01*
X77816282Y-46880000D01*
X77652064Y-46847335D01*
X77497374Y-46783260D01*
X77358156Y-46690238D01*
X77239762Y-46571844D01*
X77146740Y-46432626D01*
X77146739Y-46432625D01*
X77092607Y-46301937D01*
X77082665Y-46277936D01*
X77050000Y-46113718D01*
X77050000Y-45946282D01*
X77082665Y-45782064D01*
X77107359Y-45722447D01*
X77146739Y-45627374D01*
X77239760Y-45488159D01*
X77239762Y-45488156D01*
X77358156Y-45369762D01*
X77358786Y-45369340D01*
X77497374Y-45276739D01*
X77652064Y-45212665D01*
X77816282Y-45180000D01*
X77983718Y-45180000D01*
X78147936Y-45212665D01*
G37*
G36*
X86929676Y-45042857D02*
G01*
X86929677Y-45042857D01*
X86929679Y-45042858D01*
X87072977Y-45102214D01*
X87201941Y-45188385D01*
X87311617Y-45298061D01*
X87397788Y-45427025D01*
X87457144Y-45570323D01*
X87487403Y-45722447D01*
X87487403Y-45877551D01*
X87457144Y-46029675D01*
X87397788Y-46172973D01*
X87311617Y-46301937D01*
X87201941Y-46411613D01*
X87072977Y-46497784D01*
X86929679Y-46557140D01*
X86815586Y-46579834D01*
X86777556Y-46587399D01*
X86777555Y-46587399D01*
X86622451Y-46587399D01*
X86622450Y-46587399D01*
X86544230Y-46571840D01*
X86470327Y-46557140D01*
X86327029Y-46497784D01*
X86198065Y-46411613D01*
X86088389Y-46301937D01*
X86002218Y-46172973D01*
X85942862Y-46029675D01*
X85912603Y-45877551D01*
X85912603Y-45722447D01*
X85931514Y-45627374D01*
X85942861Y-45570325D01*
X86002219Y-45427023D01*
X86088387Y-45298063D01*
X86198067Y-45188383D01*
X86327027Y-45102215D01*
X86470329Y-45042857D01*
X86622450Y-45012599D01*
X86777556Y-45012599D01*
X86929676Y-45042857D01*
G37*
G36*
X89929675Y-45042857D02*
G01*
X89929676Y-45042857D01*
X89929678Y-45042858D01*
X90072976Y-45102214D01*
X90201940Y-45188385D01*
X90311616Y-45298061D01*
X90397787Y-45427025D01*
X90457143Y-45570323D01*
X90487402Y-45722447D01*
X90487402Y-45877551D01*
X90457143Y-46029675D01*
X90397787Y-46172973D01*
X90311616Y-46301937D01*
X90201940Y-46411613D01*
X90072976Y-46497784D01*
X89929678Y-46557140D01*
X89815585Y-46579834D01*
X89777555Y-46587399D01*
X89777554Y-46587399D01*
X89622450Y-46587399D01*
X89622449Y-46587399D01*
X89544229Y-46571840D01*
X89470326Y-46557140D01*
X89327028Y-46497784D01*
X89198064Y-46411613D01*
X89088388Y-46301937D01*
X89002217Y-46172973D01*
X88942861Y-46029675D01*
X88912602Y-45877551D01*
X88912602Y-45722447D01*
X88931513Y-45627374D01*
X88942860Y-45570325D01*
X89002218Y-45427023D01*
X89088386Y-45298063D01*
X89198066Y-45188383D01*
X89327026Y-45102215D01*
X89470328Y-45042857D01*
X89622449Y-45012599D01*
X89777555Y-45012599D01*
X89929675Y-45042857D01*
G37*
G36*
X92929674Y-45042857D02*
G01*
X92929675Y-45042857D01*
X92929677Y-45042858D01*
X93072975Y-45102214D01*
X93201939Y-45188385D01*
X93311615Y-45298061D01*
X93397786Y-45427025D01*
X93457142Y-45570323D01*
X93487401Y-45722447D01*
X93487401Y-45877551D01*
X93457142Y-46029675D01*
X93397786Y-46172973D01*
X93311615Y-46301937D01*
X93201939Y-46411613D01*
X93072975Y-46497784D01*
X92929677Y-46557140D01*
X92815584Y-46579834D01*
X92777554Y-46587399D01*
X92777553Y-46587399D01*
X92622449Y-46587399D01*
X92622448Y-46587399D01*
X92544228Y-46571840D01*
X92470325Y-46557140D01*
X92327027Y-46497784D01*
X92198063Y-46411613D01*
X92088387Y-46301937D01*
X92002216Y-46172973D01*
X91942860Y-46029675D01*
X91912601Y-45877551D01*
X91912601Y-45722447D01*
X91931512Y-45627374D01*
X91942859Y-45570325D01*
X92002217Y-45427023D01*
X92088385Y-45298063D01*
X92198065Y-45188383D01*
X92327025Y-45102215D01*
X92470327Y-45042857D01*
X92622448Y-45012599D01*
X92777554Y-45012599D01*
X92929674Y-45042857D01*
G37*
G36*
X95929673Y-45042857D02*
G01*
X95929674Y-45042857D01*
X95929676Y-45042858D01*
X96072974Y-45102214D01*
X96201938Y-45188385D01*
X96311614Y-45298061D01*
X96397785Y-45427025D01*
X96457141Y-45570323D01*
X96487400Y-45722447D01*
X96487400Y-45877551D01*
X96457141Y-46029675D01*
X96397785Y-46172973D01*
X96311614Y-46301937D01*
X96201938Y-46411613D01*
X96072974Y-46497784D01*
X95929676Y-46557140D01*
X95815583Y-46579834D01*
X95777553Y-46587399D01*
X95777552Y-46587399D01*
X95622448Y-46587399D01*
X95622447Y-46587399D01*
X95544227Y-46571840D01*
X95470324Y-46557140D01*
X95327026Y-46497784D01*
X95198062Y-46411613D01*
X95088386Y-46301937D01*
X95002215Y-46172973D01*
X94942859Y-46029675D01*
X94912600Y-45877551D01*
X94912600Y-45722447D01*
X94931511Y-45627374D01*
X94942858Y-45570325D01*
X95002216Y-45427023D01*
X95088384Y-45298063D01*
X95198064Y-45188383D01*
X95327024Y-45102215D01*
X95470326Y-45042857D01*
X95622447Y-45012599D01*
X95777553Y-45012599D01*
X95929673Y-45042857D01*
G37*
G36*
X75607936Y-42672665D02*
G01*
X75672010Y-42699205D01*
X75762625Y-42736739D01*
X75762627Y-42736740D01*
X75762626Y-42736740D01*
X75901844Y-42829762D01*
X76020238Y-42948156D01*
X76113260Y-43087374D01*
X76177335Y-43242064D01*
X76210000Y-43406282D01*
X76210000Y-43573718D01*
X76177335Y-43737936D01*
X76113260Y-43892626D01*
X76020238Y-44031844D01*
X75901844Y-44150238D01*
X75762626Y-44243260D01*
X75607936Y-44307335D01*
X75443718Y-44340000D01*
X75276282Y-44340000D01*
X75112064Y-44307335D01*
X74957374Y-44243260D01*
X74818156Y-44150238D01*
X74699762Y-44031844D01*
X74606740Y-43892626D01*
X74606739Y-43892625D01*
X74551145Y-43758408D01*
X74542665Y-43737936D01*
X74510000Y-43573718D01*
X74510000Y-43406282D01*
X74542665Y-43242064D01*
X74552473Y-43218386D01*
X74606739Y-43087374D01*
X74699760Y-42948159D01*
X74699762Y-42948156D01*
X74818156Y-42829762D01*
X74818786Y-42829340D01*
X74957374Y-42736739D01*
X75112064Y-42672665D01*
X75276282Y-42640000D01*
X75443718Y-42640000D01*
X75607936Y-42672665D01*
G37*
G36*
X78147936Y-42672665D02*
G01*
X78212010Y-42699205D01*
X78302625Y-42736739D01*
X78302627Y-42736740D01*
X78302626Y-42736740D01*
X78441844Y-42829762D01*
X78560238Y-42948156D01*
X78653260Y-43087374D01*
X78717335Y-43242064D01*
X78750000Y-43406282D01*
X78750000Y-43573718D01*
X78717335Y-43737936D01*
X78653260Y-43892626D01*
X78560238Y-44031844D01*
X78441844Y-44150238D01*
X78302626Y-44243260D01*
X78147936Y-44307335D01*
X77983718Y-44340000D01*
X77816282Y-44340000D01*
X77652064Y-44307335D01*
X77497374Y-44243260D01*
X77358156Y-44150238D01*
X77239762Y-44031844D01*
X77146740Y-43892626D01*
X77146739Y-43892625D01*
X77091145Y-43758408D01*
X77082665Y-43737936D01*
X77050000Y-43573718D01*
X77050000Y-43406282D01*
X77082665Y-43242064D01*
X77092473Y-43218386D01*
X77146739Y-43087374D01*
X77239760Y-42948159D01*
X77239762Y-42948156D01*
X77358156Y-42829762D01*
X77358786Y-42829340D01*
X77497374Y-42736739D01*
X77652064Y-42672665D01*
X77816282Y-42640000D01*
X77983718Y-42640000D01*
X78147936Y-42672665D01*
G37*
G36*
X81783828Y-42374448D02*
G01*
X81928717Y-42434463D01*
X82059115Y-42521592D01*
X82170008Y-42632485D01*
X82257137Y-42762883D01*
X82317152Y-42907772D01*
X82347748Y-43061586D01*
X82347748Y-43218414D01*
X82317152Y-43372228D01*
X82257137Y-43517117D01*
X82170008Y-43647515D01*
X82059115Y-43758408D01*
X81928717Y-43845537D01*
X81783828Y-43905552D01*
X81630014Y-43936148D01*
X81473186Y-43936148D01*
X81319372Y-43905552D01*
X81174483Y-43845537D01*
X81044085Y-43758408D01*
X80933192Y-43647515D01*
X80846063Y-43517117D01*
X80786048Y-43372228D01*
X80755452Y-43218414D01*
X80755452Y-43061586D01*
X80786048Y-42907772D01*
X80846063Y-42762883D01*
X80933192Y-42632485D01*
X81044085Y-42521592D01*
X81174483Y-42434463D01*
X81319372Y-42374448D01*
X81473186Y-42343852D01*
X81630014Y-42343852D01*
X81783828Y-42374448D01*
G37*
G36*
X100706828Y-42374448D02*
G01*
X100851717Y-42434463D01*
X100982115Y-42521592D01*
X101093008Y-42632485D01*
X101180137Y-42762883D01*
X101240152Y-42907772D01*
X101270748Y-43061586D01*
X101270748Y-43218414D01*
X101240152Y-43372228D01*
X101180137Y-43517117D01*
X101093008Y-43647515D01*
X100982115Y-43758408D01*
X100851717Y-43845537D01*
X100706828Y-43905552D01*
X100553014Y-43936148D01*
X100396186Y-43936148D01*
X100242372Y-43905552D01*
X100097483Y-43845537D01*
X99967085Y-43758408D01*
X99856192Y-43647515D01*
X99769063Y-43517117D01*
X99709048Y-43372228D01*
X99678452Y-43218414D01*
X99678452Y-43061586D01*
X99709048Y-42907772D01*
X99769063Y-42762883D01*
X99856192Y-42632485D01*
X99967085Y-42521592D01*
X100097483Y-42434463D01*
X100242372Y-42374448D01*
X100396186Y-42343852D01*
X100553014Y-42343852D01*
X100706828Y-42374448D01*
G37*
G36*
X86929676Y-42042858D02*
G01*
X86929677Y-42042858D01*
X86929679Y-42042859D01*
X87072977Y-42102215D01*
X87201941Y-42188386D01*
X87311617Y-42298062D01*
X87397788Y-42427026D01*
X87457144Y-42570324D01*
X87487403Y-42722448D01*
X87487403Y-42877552D01*
X87457144Y-43029676D01*
X87397788Y-43172974D01*
X87311617Y-43301938D01*
X87201941Y-43411614D01*
X87072977Y-43497785D01*
X86929679Y-43557141D01*
X86815586Y-43579835D01*
X86777556Y-43587400D01*
X86777555Y-43587400D01*
X86622451Y-43587400D01*
X86622450Y-43587400D01*
X86571743Y-43577313D01*
X86470327Y-43557141D01*
X86327029Y-43497785D01*
X86198065Y-43411614D01*
X86088389Y-43301938D01*
X86002218Y-43172974D01*
X85942862Y-43029676D01*
X85912603Y-42877552D01*
X85912603Y-42722448D01*
X85922505Y-42672665D01*
X85942861Y-42570326D01*
X85999031Y-42434720D01*
X86002218Y-42427026D01*
X86037165Y-42374724D01*
X86088387Y-42298064D01*
X86198067Y-42188384D01*
X86327027Y-42102216D01*
X86470329Y-42042858D01*
X86622450Y-42012600D01*
X86777556Y-42012600D01*
X86929676Y-42042858D01*
G37*
G36*
X89929675Y-42042858D02*
G01*
X89929676Y-42042858D01*
X89929678Y-42042859D01*
X90072976Y-42102215D01*
X90201940Y-42188386D01*
X90311616Y-42298062D01*
X90397787Y-42427026D01*
X90457143Y-42570324D01*
X90487402Y-42722448D01*
X90487402Y-42877552D01*
X90457143Y-43029676D01*
X90397787Y-43172974D01*
X90311616Y-43301938D01*
X90201940Y-43411614D01*
X90072976Y-43497785D01*
X89929678Y-43557141D01*
X89815585Y-43579835D01*
X89777555Y-43587400D01*
X89777554Y-43587400D01*
X89622450Y-43587400D01*
X89622449Y-43587400D01*
X89571742Y-43577313D01*
X89470326Y-43557141D01*
X89327028Y-43497785D01*
X89198064Y-43411614D01*
X89088388Y-43301938D01*
X89002217Y-43172974D01*
X88942861Y-43029676D01*
X88912602Y-42877552D01*
X88912602Y-42722448D01*
X88922504Y-42672665D01*
X88942860Y-42570326D01*
X88999030Y-42434720D01*
X89002217Y-42427026D01*
X89037164Y-42374724D01*
X89088386Y-42298064D01*
X89198066Y-42188384D01*
X89327026Y-42102216D01*
X89470328Y-42042858D01*
X89622449Y-42012600D01*
X89777555Y-42012600D01*
X89929675Y-42042858D01*
G37*
G36*
X92929674Y-42042858D02*
G01*
X92929675Y-42042858D01*
X92929677Y-42042859D01*
X93072975Y-42102215D01*
X93201939Y-42188386D01*
X93311615Y-42298062D01*
X93397786Y-42427026D01*
X93457142Y-42570324D01*
X93487401Y-42722448D01*
X93487401Y-42877552D01*
X93457142Y-43029676D01*
X93397786Y-43172974D01*
X93311615Y-43301938D01*
X93201939Y-43411614D01*
X93072975Y-43497785D01*
X92929677Y-43557141D01*
X92815584Y-43579835D01*
X92777554Y-43587400D01*
X92777553Y-43587400D01*
X92622449Y-43587400D01*
X92622448Y-43587400D01*
X92571741Y-43577313D01*
X92470325Y-43557141D01*
X92327027Y-43497785D01*
X92198063Y-43411614D01*
X92088387Y-43301938D01*
X92002216Y-43172974D01*
X91942860Y-43029676D01*
X91912601Y-42877552D01*
X91912601Y-42722448D01*
X91922503Y-42672665D01*
X91942859Y-42570326D01*
X91999029Y-42434720D01*
X92002216Y-42427026D01*
X92037163Y-42374724D01*
X92088385Y-42298064D01*
X92198065Y-42188384D01*
X92327025Y-42102216D01*
X92470327Y-42042858D01*
X92622448Y-42012600D01*
X92777554Y-42012600D01*
X92929674Y-42042858D01*
G37*
G36*
X95929673Y-42042858D02*
G01*
X95929674Y-42042858D01*
X95929676Y-42042859D01*
X96072974Y-42102215D01*
X96201938Y-42188386D01*
X96311614Y-42298062D01*
X96397785Y-42427026D01*
X96457141Y-42570324D01*
X96487400Y-42722448D01*
X96487400Y-42877552D01*
X96457141Y-43029676D01*
X96397785Y-43172974D01*
X96311614Y-43301938D01*
X96201938Y-43411614D01*
X96072974Y-43497785D01*
X95929676Y-43557141D01*
X95815583Y-43579835D01*
X95777553Y-43587400D01*
X95777552Y-43587400D01*
X95622448Y-43587400D01*
X95622447Y-43587400D01*
X95571740Y-43577313D01*
X95470324Y-43557141D01*
X95327026Y-43497785D01*
X95198062Y-43411614D01*
X95088386Y-43301938D01*
X95002215Y-43172974D01*
X94942859Y-43029676D01*
X94912600Y-42877552D01*
X94912600Y-42722448D01*
X94922502Y-42672665D01*
X94942858Y-42570326D01*
X94999028Y-42434720D01*
X95002215Y-42427026D01*
X95037162Y-42374724D01*
X95088384Y-42298064D01*
X95198064Y-42188384D01*
X95327024Y-42102216D01*
X95470326Y-42042858D01*
X95622447Y-42012600D01*
X95777553Y-42012600D01*
X95929673Y-42042858D01*
G37*
G36*
X75607936Y-40132665D02*
G01*
X75672010Y-40159205D01*
X75762625Y-40196739D01*
X75762627Y-40196740D01*
X75762626Y-40196740D01*
X75901844Y-40289762D01*
X76020238Y-40408156D01*
X76113260Y-40547374D01*
X76177335Y-40702064D01*
X76210000Y-40866282D01*
X76210000Y-41033718D01*
X76177335Y-41197936D01*
X76113260Y-41352626D01*
X76020238Y-41491844D01*
X75901844Y-41610238D01*
X75762626Y-41703260D01*
X75607936Y-41767335D01*
X75443718Y-41800000D01*
X75276282Y-41800000D01*
X75112064Y-41767335D01*
X74957374Y-41703260D01*
X74818156Y-41610238D01*
X74699762Y-41491844D01*
X74606740Y-41352626D01*
X74606739Y-41352625D01*
X74551145Y-41218408D01*
X74542665Y-41197936D01*
X74510000Y-41033718D01*
X74510000Y-40866282D01*
X74542665Y-40702064D01*
X74552473Y-40678386D01*
X74606739Y-40547374D01*
X74699760Y-40408159D01*
X74699762Y-40408156D01*
X74818156Y-40289762D01*
X74840249Y-40275000D01*
X74957374Y-40196739D01*
X75112064Y-40132665D01*
X75276282Y-40100000D01*
X75443718Y-40100000D01*
X75607936Y-40132665D01*
G37*
G36*
X78147936Y-40132665D02*
G01*
X78212010Y-40159205D01*
X78302625Y-40196739D01*
X78302627Y-40196740D01*
X78302626Y-40196740D01*
X78441844Y-40289762D01*
X78560238Y-40408156D01*
X78653260Y-40547374D01*
X78717335Y-40702064D01*
X78750000Y-40866282D01*
X78750000Y-41033718D01*
X78717335Y-41197936D01*
X78653260Y-41352626D01*
X78560238Y-41491844D01*
X78441844Y-41610238D01*
X78302626Y-41703260D01*
X78147936Y-41767335D01*
X77983718Y-41800000D01*
X77816282Y-41800000D01*
X77652064Y-41767335D01*
X77497374Y-41703260D01*
X77358156Y-41610238D01*
X77239762Y-41491844D01*
X77146740Y-41352626D01*
X77146739Y-41352625D01*
X77091145Y-41218408D01*
X77082665Y-41197936D01*
X77050000Y-41033718D01*
X77050000Y-40866282D01*
X77082665Y-40702064D01*
X77092473Y-40678386D01*
X77146739Y-40547374D01*
X77239760Y-40408159D01*
X77239762Y-40408156D01*
X77358156Y-40289762D01*
X77380249Y-40275000D01*
X77497374Y-40196739D01*
X77652064Y-40132665D01*
X77816282Y-40100000D01*
X77983718Y-40100000D01*
X78147936Y-40132665D01*
G37*
G36*
X81809228Y-39834448D02*
G01*
X81954117Y-39894463D01*
X82084515Y-39981592D01*
X82195408Y-40092485D01*
X82282537Y-40222883D01*
X82342552Y-40367772D01*
X82373148Y-40521586D01*
X82373148Y-40678414D01*
X82342552Y-40832228D01*
X82282537Y-40977117D01*
X82195408Y-41107515D01*
X82084515Y-41218408D01*
X81954117Y-41305537D01*
X81809228Y-41365552D01*
X81655414Y-41396148D01*
X81498586Y-41396148D01*
X81344772Y-41365552D01*
X81199883Y-41305537D01*
X81069485Y-41218408D01*
X80958592Y-41107515D01*
X80871463Y-40977117D01*
X80811448Y-40832228D01*
X80780852Y-40678414D01*
X80780852Y-40521586D01*
X80811448Y-40367772D01*
X80871463Y-40222883D01*
X80958592Y-40092485D01*
X81069485Y-39981592D01*
X81199883Y-39894463D01*
X81344772Y-39834448D01*
X81498586Y-39803852D01*
X81655414Y-39803852D01*
X81809228Y-39834448D01*
G37*
G36*
X100732228Y-39834448D02*
G01*
X100877117Y-39894463D01*
X101007515Y-39981592D01*
X101118408Y-40092485D01*
X101205537Y-40222883D01*
X101265552Y-40367772D01*
X101296148Y-40521586D01*
X101296148Y-40678414D01*
X101265552Y-40832228D01*
X101205537Y-40977117D01*
X101118408Y-41107515D01*
X101007515Y-41218408D01*
X100877117Y-41305537D01*
X100732228Y-41365552D01*
X100578414Y-41396148D01*
X100421586Y-41396148D01*
X100267772Y-41365552D01*
X100122883Y-41305537D01*
X99992485Y-41218408D01*
X99881592Y-41107515D01*
X99794463Y-40977117D01*
X99734448Y-40832228D01*
X99703852Y-40678414D01*
X99703852Y-40521586D01*
X99734448Y-40367772D01*
X99794463Y-40222883D01*
X99881592Y-40092485D01*
X99992485Y-39981592D01*
X100122883Y-39894463D01*
X100267772Y-39834448D01*
X100421586Y-39803852D01*
X100578414Y-39803852D01*
X100732228Y-39834448D01*
G37*
G36*
X70965285Y-38343060D02*
G01*
X71146397Y-38418079D01*
X71309393Y-38526990D01*
X71448010Y-38665607D01*
X71556921Y-38828603D01*
X71631940Y-39009715D01*
X71670185Y-39201983D01*
X71670185Y-39398017D01*
X71631940Y-39590285D01*
X71556921Y-39771397D01*
X71448010Y-39934393D01*
X71309393Y-40073010D01*
X71146397Y-40181921D01*
X70965285Y-40256940D01*
X70773017Y-40295185D01*
X70576983Y-40295185D01*
X70384715Y-40256940D01*
X70203603Y-40181921D01*
X70040607Y-40073010D01*
X69901990Y-39934393D01*
X69793079Y-39771397D01*
X69718060Y-39590285D01*
X69679815Y-39398017D01*
X69679815Y-39201983D01*
X69718060Y-39009715D01*
X69793079Y-38828603D01*
X69901990Y-38665607D01*
X70040607Y-38526990D01*
X70203603Y-38418079D01*
X70384715Y-38343060D01*
X70576983Y-38304815D01*
X70773017Y-38304815D01*
X70965285Y-38343060D01*
G37*
G36*
X105316686Y-38313428D02*
G01*
X105316687Y-38313428D01*
X105316689Y-38313429D01*
X105498678Y-38388811D01*
X105662463Y-38498249D01*
X105801751Y-38637537D01*
X105911189Y-38801322D01*
X105986571Y-38983311D01*
X106025000Y-39176509D01*
X106025000Y-39373491D01*
X105986571Y-39566689D01*
X105911189Y-39748678D01*
X105801751Y-39912463D01*
X105662463Y-40051751D01*
X105498678Y-40161189D01*
X105316689Y-40236571D01*
X105215678Y-40256663D01*
X105123493Y-40275000D01*
X105123491Y-40275000D01*
X104926509Y-40275000D01*
X104926507Y-40275000D01*
X104829910Y-40255785D01*
X104733311Y-40236571D01*
X104551322Y-40161189D01*
X104387537Y-40051751D01*
X104248249Y-39912463D01*
X104138811Y-39748678D01*
X104063429Y-39566689D01*
X104025000Y-39373491D01*
X104025000Y-39176509D01*
X104025000Y-39176507D01*
X104063428Y-38983313D01*
X104138812Y-38801320D01*
X104248247Y-38637539D01*
X104387539Y-38498247D01*
X104551320Y-38388812D01*
X104733313Y-38313428D01*
X104926507Y-38275000D01*
X105123493Y-38275000D01*
X105316686Y-38313428D01*
G37*
M02*
