G04 #@! TF.GenerationSoftware,KiCad,Pcbnew,9.0.4*
G04 #@! TF.CreationDate,2025-09-18T15:34:25+02:00*
G04 #@! TF.ProjectId,SMaRT,534d6152-542e-46b6-9963-61645f706362,0*
G04 #@! TF.SameCoordinates,Original*
G04 #@! TF.FileFunction,Legend,Top*
G04 #@! TF.FilePolarity,Positive*
%FSLAX46Y46*%
G04 Gerber Fmt 4.6, Leading zero omitted, Abs format (unit mm)*
G04 Created by KiCad (PCBNEW 9.0.4) date 2025-09-18 15:34:25*
%MOMM*%
%LPD*%
G01*
G04 APERTURE LIST*
%ADD10C,0.150000*%
%ADD11C,0.508000*%
%ADD12C,0.120000*%
%ADD13C,0.100000*%
G04 APERTURE END LIST*
D10*
X90975095Y-53593019D02*
X90975095Y-54402542D01*
X90975095Y-54402542D02*
X91022714Y-54497780D01*
X91022714Y-54497780D02*
X91070333Y-54545400D01*
X91070333Y-54545400D02*
X91165571Y-54593019D01*
X91165571Y-54593019D02*
X91356047Y-54593019D01*
X91356047Y-54593019D02*
X91451285Y-54545400D01*
X91451285Y-54545400D02*
X91498904Y-54497780D01*
X91498904Y-54497780D02*
X91546523Y-54402542D01*
X91546523Y-54402542D02*
X91546523Y-53593019D01*
X92546523Y-54593019D02*
X91975095Y-54593019D01*
X92260809Y-54593019D02*
X92260809Y-53593019D01*
X92260809Y-53593019D02*
X92165571Y-53735876D01*
X92165571Y-53735876D02*
X92070333Y-53831114D01*
X92070333Y-53831114D02*
X91975095Y-53878733D01*
X81771552Y-49651609D02*
X82438219Y-49651609D01*
X81390600Y-49889704D02*
X82104885Y-50127799D01*
X82104885Y-50127799D02*
X82104885Y-49508752D01*
X82342980Y-49127799D02*
X82390600Y-49080180D01*
X82390600Y-49080180D02*
X82438219Y-49127799D01*
X82438219Y-49127799D02*
X82390600Y-49175418D01*
X82390600Y-49175418D02*
X82342980Y-49127799D01*
X82342980Y-49127799D02*
X82438219Y-49127799D01*
X81438219Y-48175419D02*
X81438219Y-48651609D01*
X81438219Y-48651609D02*
X81914409Y-48699228D01*
X81914409Y-48699228D02*
X81866790Y-48651609D01*
X81866790Y-48651609D02*
X81819171Y-48556371D01*
X81819171Y-48556371D02*
X81819171Y-48318276D01*
X81819171Y-48318276D02*
X81866790Y-48223038D01*
X81866790Y-48223038D02*
X81914409Y-48175419D01*
X81914409Y-48175419D02*
X82009647Y-48127800D01*
X82009647Y-48127800D02*
X82247742Y-48127800D01*
X82247742Y-48127800D02*
X82342980Y-48175419D01*
X82342980Y-48175419D02*
X82390600Y-48223038D01*
X82390600Y-48223038D02*
X82438219Y-48318276D01*
X82438219Y-48318276D02*
X82438219Y-48556371D01*
X82438219Y-48556371D02*
X82390600Y-48651609D01*
X82390600Y-48651609D02*
X82342980Y-48699228D01*
X82057266Y-47699228D02*
X82057266Y-46937324D01*
X81533457Y-46508752D02*
X81485838Y-46461133D01*
X81485838Y-46461133D02*
X81438219Y-46365895D01*
X81438219Y-46365895D02*
X81438219Y-46127800D01*
X81438219Y-46127800D02*
X81485838Y-46032562D01*
X81485838Y-46032562D02*
X81533457Y-45984943D01*
X81533457Y-45984943D02*
X81628695Y-45937324D01*
X81628695Y-45937324D02*
X81723933Y-45937324D01*
X81723933Y-45937324D02*
X81866790Y-45984943D01*
X81866790Y-45984943D02*
X82438219Y-46556371D01*
X82438219Y-46556371D02*
X82438219Y-45937324D01*
X81866790Y-45365895D02*
X81819171Y-45461133D01*
X81819171Y-45461133D02*
X81771552Y-45508752D01*
X81771552Y-45508752D02*
X81676314Y-45556371D01*
X81676314Y-45556371D02*
X81628695Y-45556371D01*
X81628695Y-45556371D02*
X81533457Y-45508752D01*
X81533457Y-45508752D02*
X81485838Y-45461133D01*
X81485838Y-45461133D02*
X81438219Y-45365895D01*
X81438219Y-45365895D02*
X81438219Y-45175419D01*
X81438219Y-45175419D02*
X81485838Y-45080181D01*
X81485838Y-45080181D02*
X81533457Y-45032562D01*
X81533457Y-45032562D02*
X81628695Y-44984943D01*
X81628695Y-44984943D02*
X81676314Y-44984943D01*
X81676314Y-44984943D02*
X81771552Y-45032562D01*
X81771552Y-45032562D02*
X81819171Y-45080181D01*
X81819171Y-45080181D02*
X81866790Y-45175419D01*
X81866790Y-45175419D02*
X81866790Y-45365895D01*
X81866790Y-45365895D02*
X81914409Y-45461133D01*
X81914409Y-45461133D02*
X81962028Y-45508752D01*
X81962028Y-45508752D02*
X82057266Y-45556371D01*
X82057266Y-45556371D02*
X82247742Y-45556371D01*
X82247742Y-45556371D02*
X82342980Y-45508752D01*
X82342980Y-45508752D02*
X82390600Y-45461133D01*
X82390600Y-45461133D02*
X82438219Y-45365895D01*
X82438219Y-45365895D02*
X82438219Y-45175419D01*
X82438219Y-45175419D02*
X82390600Y-45080181D01*
X82390600Y-45080181D02*
X82342980Y-45032562D01*
X82342980Y-45032562D02*
X82247742Y-44984943D01*
X82247742Y-44984943D02*
X82057266Y-44984943D01*
X82057266Y-44984943D02*
X81962028Y-45032562D01*
X81962028Y-45032562D02*
X81914409Y-45080181D01*
X81914409Y-45080181D02*
X81866790Y-45175419D01*
X81438219Y-44699228D02*
X82438219Y-44365895D01*
X82438219Y-44365895D02*
X81438219Y-44032562D01*
X97782248Y-41969266D02*
X98544153Y-41969266D01*
X97883848Y-52624566D02*
X98645753Y-52624566D01*
X98264800Y-53005519D02*
X98264800Y-52243614D01*
X100005619Y-48635704D02*
X101005619Y-48302371D01*
X101005619Y-48302371D02*
X100005619Y-47969038D01*
X100005619Y-47445228D02*
X100005619Y-47254752D01*
X100005619Y-47254752D02*
X100053238Y-47159514D01*
X100053238Y-47159514D02*
X100148476Y-47064276D01*
X100148476Y-47064276D02*
X100338952Y-47016657D01*
X100338952Y-47016657D02*
X100672285Y-47016657D01*
X100672285Y-47016657D02*
X100862761Y-47064276D01*
X100862761Y-47064276D02*
X100958000Y-47159514D01*
X100958000Y-47159514D02*
X101005619Y-47254752D01*
X101005619Y-47254752D02*
X101005619Y-47445228D01*
X101005619Y-47445228D02*
X100958000Y-47540466D01*
X100958000Y-47540466D02*
X100862761Y-47635704D01*
X100862761Y-47635704D02*
X100672285Y-47683323D01*
X100672285Y-47683323D02*
X100338952Y-47683323D01*
X100338952Y-47683323D02*
X100148476Y-47635704D01*
X100148476Y-47635704D02*
X100053238Y-47540466D01*
X100053238Y-47540466D02*
X100005619Y-47445228D01*
X100005619Y-46588085D02*
X100815142Y-46588085D01*
X100815142Y-46588085D02*
X100910380Y-46540466D01*
X100910380Y-46540466D02*
X100958000Y-46492847D01*
X100958000Y-46492847D02*
X101005619Y-46397609D01*
X101005619Y-46397609D02*
X101005619Y-46207133D01*
X101005619Y-46207133D02*
X100958000Y-46111895D01*
X100958000Y-46111895D02*
X100910380Y-46064276D01*
X100910380Y-46064276D02*
X100815142Y-46016657D01*
X100815142Y-46016657D02*
X100005619Y-46016657D01*
X100005619Y-45683323D02*
X100005619Y-45111895D01*
X101005619Y-45397609D02*
X100005619Y-45397609D01*
X83202648Y-41969266D02*
X83964553Y-41969266D01*
X83253448Y-52649966D02*
X84015353Y-52649966D01*
X83634400Y-53030919D02*
X83634400Y-52269014D01*
X102921660Y-112219104D02*
X103397850Y-112219104D01*
X102826422Y-112504819D02*
X103159755Y-111504819D01*
X103159755Y-111504819D02*
X103493088Y-112504819D01*
X103778803Y-111600057D02*
X103826422Y-111552438D01*
X103826422Y-111552438D02*
X103921660Y-111504819D01*
X103921660Y-111504819D02*
X104159755Y-111504819D01*
X104159755Y-111504819D02*
X104254993Y-111552438D01*
X104254993Y-111552438D02*
X104302612Y-111600057D01*
X104302612Y-111600057D02*
X104350231Y-111695295D01*
X104350231Y-111695295D02*
X104350231Y-111790533D01*
X104350231Y-111790533D02*
X104302612Y-111933390D01*
X104302612Y-111933390D02*
X103731184Y-112504819D01*
X103731184Y-112504819D02*
X104350231Y-112504819D01*
D11*
G04 #@! TO.C,J1*
X100559200Y-133625000D02*
G75*
G02*
X99797200Y-133625000I-381000J0D01*
G01*
X99797200Y-133625000D02*
G75*
G02*
X100559200Y-133625000I381000J0D01*
G01*
G04 #@! TO.C,J5*
X86207802Y-126449999D02*
G75*
G02*
X85445802Y-126449999I-381000J0D01*
G01*
X85445802Y-126449999D02*
G75*
G02*
X86207802Y-126449999I381000J0D01*
G01*
D12*
G04 #@! TO.C,U1*
X80561000Y-39330000D02*
X80561000Y-55459000D01*
X80561000Y-55459000D02*
X101897000Y-55459000D01*
X84320200Y-44943400D02*
X90416200Y-44943400D01*
X84320200Y-49413800D02*
X84320200Y-44943400D01*
X85437800Y-41057200D02*
X88866800Y-41057200D01*
X85437800Y-42327200D02*
X85437800Y-41057200D01*
X88866800Y-41057200D02*
X88866800Y-42327200D01*
X88866800Y-42327200D02*
X85437800Y-42327200D01*
X90416200Y-49413800D02*
X84320200Y-49413800D01*
X90416200Y-49413800D02*
X90416200Y-44943400D01*
X92092600Y-43368600D02*
X92092600Y-50023400D01*
X92092600Y-43368600D02*
X98747400Y-43368600D01*
X93667400Y-46226100D02*
X96296300Y-46226100D01*
X93667400Y-46861100D02*
X93667400Y-46226100D01*
X93667400Y-46861100D02*
X96296300Y-46861100D01*
X96296300Y-45527600D02*
X97566300Y-46543600D01*
X96296300Y-46226100D02*
X96296300Y-45527600D01*
X96296300Y-47623100D02*
X96296300Y-46861100D01*
X97566300Y-46543600D02*
X96296300Y-47623100D01*
X98747400Y-43368600D02*
X98747400Y-50023400D01*
X98747400Y-50023400D02*
X92092600Y-50023400D01*
X101897000Y-39330000D02*
X80561000Y-39330000D01*
X101897000Y-55459000D02*
X101897000Y-39330000D01*
X84348241Y-41958900D02*
G75*
G02*
X82818959Y-41958900I-764641J0D01*
G01*
X82818959Y-41958900D02*
G75*
G02*
X84348241Y-41958900I764641J0D01*
G01*
X84399041Y-52639600D02*
G75*
G02*
X82869759Y-52639600I-764641J0D01*
G01*
X82869759Y-52639600D02*
G75*
G02*
X84399041Y-52639600I764641J0D01*
G01*
X98927841Y-41958900D02*
G75*
G02*
X97398559Y-41958900I-764641J0D01*
G01*
X97398559Y-41958900D02*
G75*
G02*
X98927841Y-41958900I764641J0D01*
G01*
X99029441Y-52614200D02*
G75*
G02*
X97500159Y-52614200I-764641J0D01*
G01*
X97500159Y-52614200D02*
G75*
G02*
X99029441Y-52614200I764641J0D01*
G01*
D13*
X85437800Y-44892600D02*
X85031400Y-44892600D01*
X85031400Y-44283000D01*
X85437800Y-44283000D01*
X85437800Y-44892600D01*
G36*
X85437800Y-44892600D02*
G01*
X85031400Y-44892600D01*
X85031400Y-44283000D01*
X85437800Y-44283000D01*
X85437800Y-44892600D01*
G37*
X85437800Y-50074200D02*
X85031400Y-50074200D01*
X85031400Y-49464600D01*
X85437800Y-49464600D01*
X85437800Y-50074200D01*
G36*
X85437800Y-50074200D02*
G01*
X85031400Y-50074200D01*
X85031400Y-49464600D01*
X85437800Y-49464600D01*
X85437800Y-50074200D01*
G37*
X86911000Y-44892600D02*
X86504600Y-44892600D01*
X86504600Y-44283000D01*
X86911000Y-44283000D01*
X86911000Y-44892600D01*
G36*
X86911000Y-44892600D02*
G01*
X86504600Y-44892600D01*
X86504600Y-44283000D01*
X86911000Y-44283000D01*
X86911000Y-44892600D01*
G37*
X86911000Y-50074200D02*
X86504600Y-50074200D01*
X86504600Y-49464600D01*
X86911000Y-49464600D01*
X86911000Y-50074200D01*
G36*
X86911000Y-50074200D02*
G01*
X86504600Y-50074200D01*
X86504600Y-49464600D01*
X86911000Y-49464600D01*
X86911000Y-50074200D01*
G37*
X88384200Y-44892600D02*
X87977800Y-44892600D01*
X87977800Y-44283000D01*
X88384200Y-44283000D01*
X88384200Y-44892600D01*
G36*
X88384200Y-44892600D02*
G01*
X87977800Y-44892600D01*
X87977800Y-44283000D01*
X88384200Y-44283000D01*
X88384200Y-44892600D01*
G37*
X88384200Y-50074200D02*
X87977800Y-50074200D01*
X87977800Y-49464600D01*
X88384200Y-49464600D01*
X88384200Y-50074200D01*
G36*
X88384200Y-50074200D02*
G01*
X87977800Y-50074200D01*
X87977800Y-49464600D01*
X88384200Y-49464600D01*
X88384200Y-50074200D01*
G37*
X89908200Y-44892600D02*
X89501800Y-44892600D01*
X89501800Y-44283000D01*
X89908200Y-44283000D01*
X89908200Y-44892600D01*
G36*
X89908200Y-44892600D02*
G01*
X89501800Y-44892600D01*
X89501800Y-44283000D01*
X89908200Y-44283000D01*
X89908200Y-44892600D01*
G37*
X89908200Y-50074200D02*
X89501800Y-50074200D01*
X89501800Y-49464600D01*
X89908200Y-49464600D01*
X89908200Y-50074200D01*
G36*
X89908200Y-50074200D02*
G01*
X89501800Y-50074200D01*
X89501800Y-49464600D01*
X89908200Y-49464600D01*
X89908200Y-50074200D01*
G37*
D11*
G04 #@! TO.C,J2*
X84392802Y-45799999D02*
G75*
G02*
X83630802Y-45799999I-381000J0D01*
G01*
X83630802Y-45799999D02*
G75*
G02*
X84392802Y-45799999I381000J0D01*
G01*
D12*
G04 #@! TO.C,A2*
X101464676Y-112474937D02*
G75*
G02*
X100885000Y-112894948I-579476J189737D01*
G01*
X100885000Y-61675000D02*
G75*
G02*
X101464676Y-62095063I0J-610000D01*
G01*
X80885000Y-112895000D02*
G75*
G02*
X80305324Y-112474937I1J610002D01*
G01*
X80305324Y-62095000D02*
G75*
G02*
X80885000Y-61675000I579692J-190051D01*
G01*
X101495000Y-109935000D02*
X101495000Y-110355000D01*
X101495000Y-107395000D02*
X101495000Y-107815000D01*
X101495000Y-104855000D02*
X101495000Y-105275000D01*
X101495000Y-102315000D02*
X101495000Y-102735000D01*
X101495000Y-99775000D02*
X101495000Y-100195000D01*
X101495000Y-97235000D02*
X101495000Y-97655000D01*
X101495000Y-94695000D02*
X101495000Y-95115000D01*
X101495000Y-92155000D02*
X101495000Y-92575000D01*
X101495000Y-89615000D02*
X101495000Y-90035000D01*
X101495000Y-87075000D02*
X101495000Y-87495000D01*
X101495000Y-84535000D02*
X101495000Y-84955000D01*
X101495000Y-81995000D02*
X101495000Y-82415000D01*
X101495000Y-79455000D02*
X101495000Y-79875000D01*
X101495000Y-76915000D02*
X101495000Y-77335000D01*
X101495000Y-74375000D02*
X101495000Y-74795000D01*
X101495000Y-71835000D02*
X101495000Y-72255000D01*
X101495000Y-69295000D02*
X101495000Y-69715000D01*
X101495000Y-66755000D02*
X101495000Y-67175000D01*
X101495000Y-64215000D02*
X101495000Y-64635000D01*
X100885000Y-61675000D02*
X98395000Y-61675000D01*
X97047061Y-112895000D02*
X100885000Y-112895000D01*
X97047061Y-61675000D02*
X98395000Y-61675000D01*
X96122939Y-112895000D02*
X94485000Y-112895000D01*
X95120000Y-61675000D02*
X96122939Y-61675000D01*
X94785000Y-64979000D02*
X94785000Y-66195000D01*
X94785000Y-61675000D02*
X94785000Y-62591000D01*
X94488910Y-66195000D02*
X94785000Y-66195000D01*
X91945000Y-112895000D02*
X92365000Y-112895000D01*
X89638910Y-66195000D02*
X92131090Y-66195000D01*
X89405000Y-112895000D02*
X89825000Y-112895000D01*
X87285000Y-112895000D02*
X85647061Y-112895000D01*
X86985000Y-66195000D02*
X87281090Y-66195000D01*
X86985000Y-64979000D02*
X86985000Y-66195000D01*
X86985000Y-61675000D02*
X86985000Y-62591000D01*
X86650000Y-61675000D02*
X95120000Y-61675000D01*
X85647061Y-61675000D02*
X86650000Y-61675000D01*
X83375000Y-61675000D02*
X84722940Y-61675000D01*
X80885000Y-112895000D02*
X84722939Y-112895000D01*
X80885000Y-61675000D02*
X83375000Y-61675000D01*
X80305324Y-62095000D02*
X79795000Y-62095000D01*
X80275000Y-109935000D02*
X80275000Y-110355000D01*
X80275000Y-107395000D02*
X80275000Y-107815000D01*
X80275000Y-104855000D02*
X80275000Y-105275000D01*
X80275000Y-102315000D02*
X80275000Y-102735000D01*
X80275000Y-99775000D02*
X80275000Y-100195000D01*
X80275000Y-97235000D02*
X80275000Y-97655000D01*
X80275000Y-94695000D02*
X80275000Y-95115000D01*
X80275000Y-92155000D02*
X80275000Y-92575000D01*
X80275000Y-89615000D02*
X80275000Y-90035000D01*
X80275000Y-87075000D02*
X80275000Y-87495000D01*
X80275000Y-84535000D02*
X80275000Y-84955000D01*
X80275000Y-81995000D02*
X80275000Y-82415000D01*
X80275000Y-79455000D02*
X80275000Y-79875000D01*
X80275000Y-76915000D02*
X80275000Y-77335000D01*
X80275000Y-74375000D02*
X80275000Y-74795000D01*
X80275000Y-71835000D02*
X80275000Y-72255000D01*
X80275000Y-69295000D02*
X80275000Y-69715000D01*
X80275000Y-66755000D02*
X80275000Y-67175000D01*
X80275000Y-64215000D02*
X80275000Y-64635000D01*
X80275000Y-64215000D02*
X79795000Y-64215000D01*
G04 #@! TD*
M02*
